<?xml version="1.0" encoding="utf-8"?>
<!-- Generator: Adobe Illustrator 15.0.1, SVG Export Plug-In . SVG Version: 6.00 Build 0)  -->
<!DOCTYPE svg PUBLIC "-//W3C//DTD SVG 1.1//EN" "http://www.w3.org/Graphics/SVG/1.1/DTD/svg11.dtd">
<svg version="1.1" id="Layer_1" xmlns="http://www.w3.org/2000/svg" xmlns:xlink="http://www.w3.org/1999/xlink" x="0px" y="0px"
	 width="306.332px" height="300px" viewBox="0 0 306.332 300" enable-background="new 0 0 306.332 300" xml:space="preserve">
<g>
	<path fill-rule="evenodd" clip-rule="evenodd" fill="#FFF212" d="M58.381,3.012c62.662,0,125.325,0,187.987,0
		c0,65.086,0,130.173,0,195.26c0.061,25.235-6.463,46.371-36.5,52.867c-21.813,1.503-44.72,2.954-57.052,19.668
		c-15.244-17.252-30.368-15.2-48.961-19.44c-35.932-8.194-48.973-27.652-47.517-54.241C57.019,132.422,57.7,67.717,58.381,3.012z"/>
	<path fill-rule="evenodd" clip-rule="evenodd" fill="#FEFEFE" d="M227.443,175.904c-12.287,25.941-32.627,53.166-74.493,66.324
		c-37.841-10.393-68.115-41.255-75.86-66.509L227.443,175.904z"/>
	<path fill-rule="evenodd" clip-rule="evenodd" fill="#FFF212" d="M86.972,175.05l-0.201,1.204l26.947,19.874l2.104-3.313
		l-26.747-18.568L86.972,175.05L86.972,175.05z M148.479,174.949l-0.5,23.788l3.105-1.306l0.2-24.189L148.479,174.949
		L148.479,174.949z M159.441,197.981l20.793-23.534l5.91-0.302l-24.743,27.001L159.441,197.981L159.441,197.981z M166.415,205.461
		l-0.706,4.719l58.629-24.417l3.58-6.097L166.415,205.461L166.415,205.461z M118.927,175.05l22.972,29.378l0.77-3.684
		l-20.536-25.996L118.927,175.05z"/>
	<path fill-rule="evenodd" clip-rule="evenodd" fill="#FFF212" d="M152.076,198.902c6.865,0,12.433,5.089,12.433,11.364
		c0,1.768-0.442,3.44-1.229,4.932c-1.781-0.355-4.479-1.187-6.298-1.833c-2.295-0.816-7.7,0.445-10.736,0.371
		c-2.461-0.061-5.409-3.877-6.437-5.318C140.774,203.021,145.899,198.902,152.076,198.902z"/>
	<path fill-rule="evenodd" clip-rule="evenodd" fill="#5A837D" d="M205.452,209.526c-12.314,13.52-29.023,25.323-52.502,32.702
		c-24.314-6.677-45.502-21.807-59.599-38.468c1.678-0.042,4.246-0.411,6.01-2.086c2.824-2.681,3.322,0.892,3.322,0.892
		s10.441-2.738,11.035-6.438c0.594-3.701,7.032-2.23,7.032-2.23s12.193,13.221,14.538,11.266s9.131,7.964,9.131,7.964l12.562,0.238
		c0,0,7.509,4.249,8.957,3.979c1.449-0.269,7.41-3.669,12.051-4.978c4.642-1.309,7.147,0.458,7.147,0.458s-0.067-4.714,8.571-5.304
		C199.9,207.098,203.761,208.626,205.452,209.526z"/>
	<path fill-rule="evenodd" clip-rule="evenodd" fill="#ED3237" d="M130.48,30.245c0,0-2.003-1.539-3.005-1.338
		c-1.002,0.2-1.002,1.338-1.402,0.937c-0.4-0.402-0.267-1.205-0.735-1.272c-0.467-0.066-1.669-1.205-1.669-1.205
		s0.199,0.805-0.133,1.139c-0.334,0.334-0.899,0.54-0.361,0.83c0.537,0.289,0.578,0.454,0.578,0.454s-0.909-0.414-1.198-0.041
		c-0.29,0.372,0.909,0.66,0.745,1.322c-0.166,0.66-0.496,0.413-0.621,0.248c-0.124-0.165-0.29-0.248-0.703-0.248
		s-0.703,0.908-1.074,1.032c-0.372,0.124-0.621-0.372-0.621,0.124c0,0.497-1.075,0.373-1.282,0.621
		c-0.206,0.248-0.249,0.208-0.33,0.579c-0.083,0.371-0.496,0.538-0.785,0.662c-0.29,0.125-0.29,0.371-0.29,0.744
		c0,0.372-0.373,0.413-0.577,0.413c-0.208,0-0.331,0.042-0.249,0.826c0.082,0.786-0.082,1.364-0.33,1.653
		c-0.248,0.29-0.248,1.158-0.332,1.49c-0.082,0.33-0.826,0.04-0.289,1.032c0.538,0.992,0.083,0.785,0.372,1.652
		c0.289,0.868,0.785,1.075,1.239,0.579c0.456-0.497,1.076-0.869,1.322-1.282c0.249-0.413,1.241-0.784,0.994-1.281
		c-0.249-0.494-1.405-0.744-1.116-1.363c0.29-0.62,0.826-0.538,0.867-0.951c0.042-0.413,0.662-0.66,0.868-0.413
		c0.207,0.248,1.364,1.735,1.735,1.447c0.372-0.29,1.777-0.455,1.777-0.455s0.29-1.405,1.034-1.571
		c0.744-0.164,0.62,0.124,1.033-0.577c0.415-0.703,0.702-0.373,1.405-0.911c0.703-0.537,0.125-0.082,1.034-0.745
		c0.909-0.659,1.155-0.163,1.155,0.373c0,0.538,0.414,0.415,1.075,0.496c0.661,0.083,0.496,0.373,0.785,0.745
		c0.291,0.372,0.538,0.372,0.167,0.868c-0.373,0.496-0.993,1.24-0.993,1.24s-1.158-0.662-1.735-0.455
		c-0.579,0.208-1.654,0.248-1.654,0.993c0,0.743,0.455,1.156,1.034,1.073c0.577-0.083,0.825-0.124,0.536,0.538
		c-0.288,0.661-0.826,0.041-0.536,1.032c0.289,0.993,0.495,1.985,0.785,1.075c0.29-0.909-0.041-1.405,0.454-1.405
		c0.496,0-0.207,1.158,0.703,0.91c0.908-0.249,1.363,0.248,1.322-0.371c-0.041-0.62-0.62-0.496-0.125-0.91
		c0.496-0.414,0.992-0.703,0.579-1.156c-0.414-0.455-1.323-0.703,0-1.075c1.323-0.372,0.496-1.158,0.95-1.488
		c0.454-0.331-0.619-0.372,0.497-0.826c1.115-0.455,0.908,0.661,1.446,0.867c0.536,0.207,1.033-0.454,0.99-0.827
		c-0.041-0.371,0.084-0.826-0.826-0.867c-0.909-0.041-1.199-0.083-0.703-0.62c0.496-0.536,0.744-0.536,0.496-0.867
		c-0.247-0.331-0.165,0.165-0.619,0.372c-0.454,0.207-0.745,0.62-0.869,0.207c-0.123-0.413,0.041-1.488-0.04-1.653
		c-0.083-0.165-0.538,0.414-0.745,0.538s-0.496-0.166-0.538-0.661c-0.041-0.495,0-1.117,0-1.117l-1.033,0.746
		c0,0-0.249-0.455,0-1.117s0.33-1.032,0.249-1.199C131.108,29.667,130.48,30.245,130.48,30.245L130.48,30.245z M78.05,74.275
		c11.947-26.492,36.065-53.186,71.39-64.289c0.921,10.351,0.104,25.172,0.081,41.263c-0.008,5.717-0.024,11.613-0.044,17.571
		c-0.36-0.428-1.23-0.995-1.23-0.995s1.13-1.091,0.623-1.598c-0.506-0.507-1.442-1.405-2.066-2.028
		c-0.625-0.623-1.169-1.792-1.521-1.792c-0.351,0-1.247-0.04-0.936-0.469c0.312-0.429,0.896-0.506,0.507-1.325
		s-0.74-1.248-0.896-1.483c-0.156-0.234-1.252-0.959-1.252-0.959s-0.636,0.92-1.698,0.708c-1.06-0.21-0.283-0.636-1.768-0.141
		c-1.487,0.497-2.547,0.213-3.042-0.141c-0.497-0.354-1.274-0.85-1.558,0c-0.282,0.848-1.486,2.122-1.344,2.334
		c0.142,0.213-0.496-0.07-1.062-0.495c-0.566-0.426-0.778-0.426-0.778,0.141c0,0.566-0.779,0.071-1.485-0.425
		c-0.708-0.496-1.768-1.769-1.911-0.849c-0.141,0.919-0.707,1.415-0.991,0.919c-0.283-0.496-0.919-1.061-0.919-1.061l-0.991,0.99
		c0,0-0.777-0.849-1.203-0.778c-0.423,0.07-1.203,0.636-1.203,1.344c0,0.708,0.213,1.77-0.07,2.406
		c-0.282,0.637-2.405,3.041-2.901,4.527c-0.495,1.487-2.688,3.539-3.608,4.174c-0.92,0.636-1.698,0.991-2.405,0.991
		c-0.708,0-1.697,0.778-2.335,1.062c-0.635,0.283-1.556,0.07-1.98,0.283c-0.425,0.211-1.698,1.697-1.981,1.697
		c-0.282,0-1.132,0.85-1.344,1.698c-0.211,0.849-1.629,2.265-1.629,2.971c0,0.707,0.779,1.273,0.356,1.698
		c-0.425,0.424-0.778,0.283-0.778,0.283l-0.284,0.92c0,0-0.23,0.695-0.571,0.908c-0.341,0.214-0.639,0.77-0.767,1.792
		c-0.127,1.023-1.022,1.792-1.319,2.262c-0.298,0.468-5.151,4.478-5.109,5.16c0.042,0.682,0.937,0.256,1.191-0.085
		c0.256-0.341,0.426,0.171,0.044,0.512c-0.384,0.342-0.64,1.621-0.129,1.579c0.512-0.043,1.576-2.005,1.576-0.98
		c0,1.022,0.043,2.089,0.298,2.047c0.257-0.043,0.682-1.28,0.682-0.683s-0.085,2.091,0.17,2.176s0.68-1.665,0.81-1.195
		c0.127,0.469-0.427,1.407,0.212,1.407s1.32-0.512,1.32,0c0,0.512-0.553,1.494-0.553,1.494s2.214,2.09,2.639,0.981
		c0.425-1.109,0.766-1.665,0-2.133c-0.767-0.469-1.406-1.408-1.916-1.835c-0.511-0.427-0.851-0.682-0.723-1.065
		c0.126-0.384,1.49-2.261,1.49-2.261s1.915-1.707,2.555-2.518c0.638-0.81,2.978-2.815,3.277-3.37
		c0.298-0.554-0.044-0.981,0.298-1.023c0.34-0.042,0.893,0.938,1.276,0.426c0.383-0.511,3.424-3.35,3.424-3.931
		c0-0.584-1.006-1.909-0.424-2.068c0.583-0.16,1.271-0.053,1.271-0.424s-0.371-0.953,0.213-1.006
		c0.583-0.053,1.378,0.476,1.749,0.053c0.371-0.424,0.424-0.477,0.635-0.424c0.212,0.052,0.366,0.101,0.366-0.243
		c0-0.345,0.058-0.689,0.315-0.689c0.257,0,0.744,0.89,1.087,0.746c0.343-0.143,0.772-0.115,0.772-0.372
		c0-0.259-0.142-0.603,0.173-0.688c0.314-0.087,0.686,0.2,0.916,0.458c0.229,0.258,0.686,0.689,0.773,0.314
		c0.085-0.373,0.086-0.716,0.315-0.716c0.228,0,1.344-0.086,1.459-0.316c0.115-0.229-0.143-0.631,0.286-0.717
		s1.402,0.202,1.746,0.058c0.343-0.144,1.404-1.234,1.432-1.635c0.028-0.401,0.228-0.774,0.571-1.118
		c0.344-0.343,1.461-1.577,1.661-1.577c0.199,0,1.459,0.917,1.688,0.631c0.229-0.287-0.029-0.804,0.229-0.89
		c0.258-0.086,1.833-1.849,1.91-2.387c0.076-0.541-3.313-2.967-3.429-3.352c-0.115-0.387,1.001-0.695,0.656-1.234
		c-0.347-0.54-1.156-0.964-0.501-1.271c0.655-0.31,2.003-0.31,2.312-0.31c0.309,0,0.269,0.117,0.771,0.616
		c0.501,0.501,1.58,0.964,1.85,0.925c0.27-0.038,0.5-0.539,0.5-0.539s0.27-0.424,0.616-0.076c0.348,0.346,0.154,0.769,0.81,0.847
		c0.654,0.077,1.215,0.304,1.41-0.32c0.195-0.624,1.171-2.105,1.405-2.222c0.233-0.117,0.741,1.676,1.013,1.014
		c0.273-0.662,0.468-1.442,0.896-1.091c0.429,0.351,0.313,1.13,1.092,1.091c0.78-0.039,1.053-0.117,1.053-0.312
		s0.078-1.247,0.431-0.896c0.349,0.351-0.275,1.053,0.427,1.091c0.703,0.04,1.794,1.014,1.834,1.443
		c0.039,0.429-0.546,0.389-0.08,0.896c0.469,0.506,0.625,0.975,0.469,1.755c-0.156,0.779-0.469,1.208-0.156,1.208
		c0.312,0,0.896-0.312,1.052,0.079c0.157,0.389-0.039,0.545,0.468,0.896s0.663,0.39,0.39,0.741
		c-0.273,0.351-0.936,0.664-0.936,1.209c0,0.545,0.234,1.247,0.506,1.052c0.193-0.136,1.021-0.681,1.495-1.126
		c-0.035,11.125-0.072,22.38-0.085,32.978c-6.813-0.005-13.612-0.029-20.389-0.079c-0.222-0.207-0.362-0.19-0.575-0.135
		c-0.099,0.024-0.253,0.071-0.417,0.126l-1.132-0.008c-0.238-0.135-0.529-0.271-0.721-0.271c-0.258,0-0.654,0.069-0.786,0.257
		c-4.045-0.035-8.083-0.078-12.11-0.134c-0.04-0.14-0.104-0.267-0.199-0.38c-0.857-0.046-2.412-0.107-3.821-0.022
		c-0.461,0.028-0.796,0.151-1.041,0.327c-12.925-0.209-25.741-0.542-38.397-1.057l-0.035-0.343
		c0.72-6.724,2.421-13.934,5.078-21.279C75.862,79.764,76.969,77.145,78.05,74.275L78.05,74.275z M126.045,38.733
		c0,0,0.212,0.555,0.085,1.023c-0.128,0.471-0.427-0.085-0.938-0.596C124.683,38.648,126.045,38.733,126.045,38.733L126.045,38.733z
		 M126.01,81.233c0,0-0.708-0.778-1.84-0.423c-1.132,0.354-1.839,0.354-1.839,0.849c0,0.495-0.354,0.708-0.708,0.565
		c-0.354-0.141-1.131-0.92-1.556-0.283c-0.425,0.636-1.91,1.911-0.85,4.033c1.062,2.121,0,3.608,0,4.456c0,0.85-0.566,1.486,0,2.901
		c0.565,1.415,0.417,2.25,1.607,3.44c1.19,1.19,1.954,1.445,1.954,2.636c0,1.189,0.842,2.274,0.717,2.6
		c-0.124,0.323-0.895,0.896-0.348,1.469c0.547,0.574,1.715,0.697,2.063,0.075c0.348-0.622,0.398-1.52-0.249-2.367
		c-0.646-0.847-0.322-1.096-0.546-2.093c-0.224-0.996-0.622-2.465-0.174-3.985c0.448-1.521,0.921-4.444,1.467-5.089
		c0.546-0.644,1.604-1.922,1.446-3.906c-0.158-1.985,0.038-3.061-0.554-3.968C126.01,81.233,126.01,81.233,126.01,81.233
		L126.01,81.233z M149.473,70.851l0.004-1.56c-0.18,0.173-0.541,0.309-0.879,0.444C148.083,69.942,149.049,70.57,149.473,70.851
		L149.473,70.851z M130.03,53.834c0,0-0.635-0.743-0.848-1.113c-0.211-0.371-1.325-1.006-1.378-1.484
		c-0.053-0.477,0.053-0.901-0.211-0.901c-0.266,0-1.165,0.053-1.854-0.054c-0.69-0.104-0.425-0.9-0.901-0.794
		c-0.479,0.106,0,0.954-0.319,1.272c-0.317,0.318-0.847-0.582-1.43-0.529c-0.583,0.052,0.264,0.635,0.371,1.218
		c0.105,0.583,0.583,0.425,0.583,0.425s0.688,1.114,1.431,1.696c0.742,0.583-0.211,0.424,0.584,0.955
		c0.794,0.529,0.74-0.053,1.747,0.424c1.009,0.475,0.744-0.107,1.591-0.16c0.848-0.053,1.166,0.531,1.377,0.318
		C130.984,54.895,130.03,53.834,130.03,53.834L130.03,53.834z M129.621,46.752c0,0-0.596,0.726-0.765,1.195
		c-0.172,0.47-0.511,0.938,0.042,1.237c0.553,0.299,0.212,0.555,0.894,0.726c0.681,0.171,1.363-0.597,1.106-1.365
		c-0.256-0.768-0.638-0.895-0.638-1.281c0-0.383-0.129-0.684-0.129-0.684L129.621,46.752L129.621,46.752z M147.662,44.196
		c0,0-2.301,1.949-2.846,2.495c-0.547,0.546-0.195,1.131-0.818,1.209c-0.625,0.079-2.341,0.196-2.887,0.781
		c-0.547,0.584-0.506,2.533-0.039,3.08c0.468,0.546,2.222,1.676,2.222,1.247c0-0.429-1.286-1.48-0.818-1.675
		c0.467-0.195,1.169,0.312,1.442,0c0.274-0.313,1.99-0.663,1.638-1.364c-0.35-0.703-1.092-1.092-0.544-1.482
		c0.544-0.39,0.973-0.042,0.973-0.625c0-0.586,0.274-0.781,0.664-0.937c0.39-0.156,0.39-0.624,0.429-1.014
		c0.039-0.389,0.507-0.623,0.585-0.779C147.74,44.976,147.662,44.196,147.662,44.196L147.662,44.196z M124.938,42.402
		c0,0,0,0,0.638-0.257c0.639-0.255,0.128,0.383,0.341,1.152c0.213,0.768,0.511,0.811,0.17,1.238
		c-0.34,0.425-1.022,1.279-1.447,1.236c-0.427-0.042-0.129-0.812-0.298-0.897c-0.17-0.085-0.724,0.47-1.065,0.3
		c-0.34-0.171-0.213-0.897-0.552-1.324c-0.341-0.425-0.341,0.513-0.598,1.024c-0.255,0.512-0.552,0.172-0.723-0.339
		c-0.169-0.513-1.363-0.556-1.491-1.323c-0.127-0.768,0.639-0.598,0.98-0.896c0.34-0.3,0-0.598,0.682-0.598
		c0.68,0,0.51,0.641,0.767,0.726c0.253,0.084,0.425-0.085,0.425-0.726c0-0.64,0.426-0.683,1.15-0.512S124.938,42.402,124.938,42.402
		z"/>
	<path fill-rule="evenodd" clip-rule="evenodd" fill="#0B7AB6" d="M152.353,105.175c-0.337-32.697,0.024-64.582,1.611-95.034
		c36.454,11.15,73.738,43.289,81.247,93.722l-0.118,1.086C207.597,104.927,179.862,105.182,152.353,105.175z"/>
	<rect x="54.284" y="106.104" fill-rule="evenodd" clip-rule="evenodd" fill="#0B7AB6" width="55.175" height="66.286"/>
	<rect x="196.47" y="107.624" fill-rule="evenodd" clip-rule="evenodd" fill="#ED3237" width="49.897" height="66.286"/>
	<rect x="106.521" y="107.088" fill-rule="evenodd" clip-rule="evenodd" fill="#FEFEFE" width="88.784" height="68.643"/>
	<path fill-rule="evenodd" clip-rule="evenodd" fill="#373435" d="M130.48,30.246c0,0-2.003-1.54-3.005-1.339
		c-1.001,0.201-1.001,1.338-1.402,0.937c-0.4-0.401-0.267-1.205-0.734-1.271c-0.468-0.066-1.67-1.205-1.67-1.205
		s0.2,0.803-0.133,1.138c-0.334,0.334-0.899,0.541-0.361,0.83c0.538,0.29,0.579,0.455,0.579,0.455s-0.909-0.413-1.199-0.041
		c-0.289,0.372,0.91,0.661,0.744,1.322s-0.496,0.413-0.62,0.248c-0.124-0.166-0.289-0.248-0.702-0.248
		c-0.414,0-0.703,0.909-1.075,1.033s-0.62-0.372-0.62,0.124c0,0.496-1.074,0.372-1.281,0.62c-0.207,0.248-0.248,0.207-0.33,0.578
		c-0.083,0.372-0.496,0.538-0.785,0.662c-0.29,0.124-0.29,0.372-0.29,0.744c0,0.372-0.372,0.413-0.579,0.413
		s-0.331,0.042-0.248,0.827s-0.083,1.364-0.331,1.653c-0.248,0.289-0.248,1.157-0.331,1.487c-0.083,0.331-0.827,0.042-0.289,1.034
		c0.537,0.992,0.083,0.785,0.372,1.653c0.289,0.868,0.785,1.074,1.239,0.579c0.455-0.496,1.075-0.868,1.323-1.281
		c0.248-0.414,1.24-0.785,0.992-1.281c-0.248-0.496-1.405-0.744-1.116-1.364c0.289-0.62,0.827-0.537,0.868-0.95
		c0.042-0.414,0.662-0.662,0.868-0.414c0.207,0.248,1.364,1.736,1.736,1.446c0.372-0.289,1.777-0.454,1.777-0.454
		s0.289-1.405,1.033-1.57c0.744-0.166,0.62,0.124,1.033-0.579c0.413-0.703,0.702-0.372,1.405-0.909
		c0.703-0.538,0.124-0.083,1.033-0.744s1.157-0.166,1.157,0.372c0,0.537,0.413,0.413,1.074,0.496
		c0.662,0.083,0.496,0.372,0.786,0.744c0.289,0.372,0.537,0.372,0.165,0.868c-0.372,0.496-0.992,1.24-0.992,1.24
		s-1.157-0.662-1.736-0.455c-0.579,0.207-1.653,0.248-1.653,0.992c0,0.744,0.455,1.158,1.033,1.075
		c0.579-0.083,0.827-0.124,0.538,0.538c-0.29,0.661-0.826,0.041-0.538,1.033c0.29,0.992,0.496,1.984,0.786,1.075
		c0.289-0.909-0.042-1.405,0.455-1.405c0.496,0-0.207,1.157,0.703,0.91c0.909-0.248,1.364,0.248,1.322-0.372
		c-0.042-0.62-0.62-0.496-0.124-0.909s0.992-0.703,0.579-1.157s-1.323-0.703,0-1.075c1.322-0.372,0.496-1.157,0.951-1.488
		c0.455-0.331-0.62-0.372,0.496-0.826c1.116-0.455,0.909,0.661,1.446,0.868c0.538,0.207,1.034-0.455,0.992-0.827
		c-0.042-0.372,0.083-0.827-0.827-0.868c-0.909-0.042-1.198-0.083-0.703-0.62c0.496-0.537,0.744-0.537,0.496-0.868
		s-0.166,0.166-0.62,0.372c-0.454,0.207-0.744,0.62-0.868,0.207s0.042-1.488-0.042-1.653c-0.083-0.165-0.537,0.414-0.744,0.538
		c-0.207,0.124-0.496-0.166-0.538-0.661c-0.041-0.496,0-1.116,0-1.116l-1.033,0.744c0,0-0.248-0.455,0-1.116
		s0.331-1.033,0.248-1.199C131.108,29.666,130.48,30.246,130.48,30.246L130.48,30.246z M130.088,23.682c0,0,1.352,0.518,1.661,1.139
		c0.31,0.62,0.207,2.068,0.207,2.068s2.374,0.931,3.2,1.138c0.826,0.207,1.857,1.655,1.651,2.378s0.516,1.655,0.929,1.965
		c0.413,0.311,0.619,1.138,0.722,1.861c0.103,0.724,0.723,2.172,1.342,4.034c0.62,1.861,0.104,6.101,0.104,6.101
		s0.103,2.068,1.341,1.448s4.645-4.654,4.645-4.654s0-2.068,0-3.206s-0.722-2.068-0.929-3.62s2.167-0.724,2.993-0.104
		c0.825,0.621,0.619-1.241,0.619-1.241s0-0.517-0.413-1.551c-0.413-1.034,3.303-1.448,3.303-1.448l0.484,19.587
		c0,0-1.607,0.357-2.977,0.893c-1.37,0.536-3.874,4.623-3.874,4.623s0.038,2.119,0.154,2.35s1.927,2.62,2.581,3.159
		c0.655,0.539,3.128,2.155,3.128,2.155l-0.22,16.167c0,0-1.02-1.105-1.955-2.295c-0.935-1.19-3.654-1.445-5.864-2.55
		c-2.209-1.105,0.255-4.504,0.935-6.034c0.68-1.53-1.53-1.53-2.465-1.53s-1.105,0.68-1.87,1.7c-0.765,1.02-2.975,4.504-4.589,6.714
		c-1.615,2.209-4.144,2.774-5.803,3.124s-0.349,2.712,0.524,5.688c0.874,2.975-0.349,6.65-1.833,9.713
		c-1.485,3.063-1.135,5.688-0.175,7.35s1.223,2.363,2.183,2.363s4.192-0.088,4.891,0.438s-0.087,4.113-0.087,4.113l-1.791-0.117
		c-0.519-0.252-1.099-0.564-1.394-0.822c-0.605-0.531-1.665-0.683-2.119-1.29c-0.455-0.606-0.606-0.606-0.909-0.531
		c-0.302,0.076-1.135,0.379-1.135,0.379s-0.757-0.531-1.135-0.531s-1.06,0.151-0.757,0.606s0.748,0.969,0.525,1.736l-6.045-0.394
		c0,0,0.96-3.413,0.611-5.338c-0.35-1.925-1.921-3.15-3.231-4.9s-0.437-3.063-0.262-5.95c0.175-2.888-0.698-3.675-1.135-4.375
		c-0.437-0.7-0.874-0.7-2.533,1.75c-1.66,2.45-5.327,4.813-6.899,5.688c-1.572,0.875-1.834,2.363-1.048,3.588
		c0.786,1.225,2.62,4.112,3.493,4.638c0.874,0.525,7.336,1.05,7.336,1.05l-2.494,1.688c0,0-0.336-0.027-0.867-0.053h-0.003
		c-0.24-0.013-0.52-0.024-0.825-0.034l-0.011,0c-0.398-0.012-0.842-0.021-1.3-0.019h-0.066h-0.022l-0.178,0.001h-0.019l-0.047,0.001
		l-0.269,0.005l-0.067,0.001l-0.013,0l-0.099,0.002l-0.022,0.001l-0.067,0.002l-0.009,0l-0.058,0.002l-0.041,0.001l-0.026,0.001
		l-0.067,0.003h-0.006l-0.099,0.004l-0.029,0.001l-0.066,0.003h-0.003l-0.064,0.003l-0.034,0.002l-0.098,0.006l-0.096,0.007
		l-0.013,0.001l-0.078,0.009h-0.001l-0.024,0.003l-0.05,0.007l-0.014,0.002l-0.011,0.002l-0.024,0.004l-0.048,0.009l-0.002,0
		l-0.021,0.004l-0.023,0.005l-0.023,0.005l-0.023,0.005l-0.022,0.006l-0.022,0.005l-0.022,0.006l-0.003,0l-0.019,0.006l-0.021,0.006
		l-0.021,0.007l-0.021,0.007l-0.021,0.007l-0.02,0.007l-0.003,0.001l-0.037,0.014l-0.02,0.007l-0.019,0.008l-0.035,0.015
		l-0.003,0.001l-0.019,0.008l-0.018,0.009l-0.019,0.008l-0.018,0.009l-0.018,0.009l-0.034,0.019l-0.017,0.009
		c-1.033,0.577-0.738,1.973-0.738,1.973l-2.145,0.695c0,0-5.046-1.264-5.046-1.77s0.063-1.896-1.387-3.223
		c-1.451-1.327-3.406-3.033-5.109-4.613c-1.703-1.58-1.261-3.16-0.252-5.562c1.009-2.401,5.425-6.083,6.132-6.979
		s1.273-0.896,1.509-3.584c0.236-2.688-1.32-2.877-2.405-3.49c-1.085-0.613-2.749-2.473-3.332-4.124
		c-0.583-1.651,1.166-4.08,1.166-4.08s-0.583-0.777,0.097-2.331c0.68-1.554,7.285-12.238,8.255-15.638
		c0.972-3.399-1.457-3.594-2.428-3.205c-0.971,0.388-2.137,2.525-2.233,4.273c-0.097,1.749-0.486,3.011-0.389,3.982
		s-1.263,3.205-1.749,3.594c-0.485,0.389-1.166,2.525-1.845,1.749c-0.68-0.777-1.36,0-2.623,0s-0.874-2.428-0.874-2.428
		s-0.486-1.651-0.194-3.303c0.292-1.651,3.302-8.159,3.302-8.159s0.68-2.525,1.846-3.982s4.079-3.011,6.604-2.428
		c2.525,0.583,4.07,2.693,5.021,6.905c0.952,4.212-0.822,7.976-1.975,9.708c-1.152,1.732-4.349,7.246-6.078,10.973
		c-1.729,3.728,2.411,4.883,2.411,4.883s1.467-1.155,1.938-1.26c0.472-0.105,1.1-0.998,1.467-1.417
		c0.367-0.42,1.991-0.157,2.515-0.578c0.524-0.42,2.567,0,2.882-0.525c0.314-0.524,2.358-1.103,2.358-1.103s1.833-2.258,2.357-2.993
		c0.524-0.735,1.939-2.992,2.411-3.57c0.472-0.577,0.995-1.89,0.995-2.993c0-1.102,0.282-3.85,0.282-4.87s0-1.615-1.275-1.53
		s-1.87-1.53-2.635-2.549c-0.765-1.02-2.379-3.06-3.654-4.59c-1.275-1.529,0-1.615,0.51-3.145s-1.87-3.06-2.04-3.399
		s0.68-2.634,0.68-3.739s1.19-2.805,2.125-4.08c0.935-1.275,3.06-3.314,4.589-4.079c1.53-0.765,1.189-1.275,2.04-1.87
		c0.85-0.595,1.445-1.359,1.955-2.04c0.51-0.68,0.169-1.445,1.359-1.445s0.51,0.255,1.105,1.275c0.595,1.02,1.36,1.7,2.125,1.7
		C128.729,25.807,130.088,23.682,130.088,23.682L130.088,23.682z M126.044,38.733c0,0,0.213,0.555,0.085,1.024
		c-0.128,0.469-0.426-0.085-0.937-0.597S126.044,38.733,126.044,38.733L126.044,38.733z M126.009,81.234
		c0,0-0.708-0.778-1.839-0.424c-1.132,0.354-1.839,0.354-1.839,0.849s-0.354,0.708-0.708,0.566s-1.132-0.92-1.556-0.283
		c-0.425,0.637-1.911,1.91-0.849,4.033c1.061,2.122,0,3.608,0,4.457c0,0.849-0.566,1.485,0,2.9s0.417,2.25,1.607,3.44
		c1.189,1.189,1.955,1.445,1.955,2.635c0,1.189,0.841,2.276,0.717,2.6s-0.895,0.896-0.348,1.47s1.715,0.697,2.063,0.075
		c0.348-0.623,0.398-1.52-0.249-2.366c-0.646-0.847-0.323-1.096-0.546-2.093c-0.224-0.997-0.622-2.466-0.174-3.985
		c0.448-1.52,0.921-4.445,1.467-5.089c0.546-0.644,1.605-1.922,1.446-3.906c-0.158-1.984,0.038-3.06-0.554-3.968
		S126.009,81.234,126.009,81.234L126.009,81.234z M142.705,58.171c0,0-0.637,0.92-1.698,0.708c-1.061-0.212-0.283-0.637-1.769-0.142
		c-1.486,0.496-2.547,0.212-3.042-0.142c-0.496-0.354-1.274-0.849-1.557,0c-0.283,0.849-1.485,2.123-1.344,2.335
		c0.142,0.212-0.495-0.071-1.061-0.495s-0.778-0.424-0.778,0.141c0,0.566-0.778,0.071-1.486-0.424
		c-0.708-0.495-1.768-1.769-1.91-0.849c-0.142,0.92-0.708,1.415-0.991,0.92c-0.283-0.495-0.919-1.061-0.919-1.061l-0.991,0.99
		c0,0-0.778-0.849-1.203-0.778s-1.203,0.637-1.203,1.344c0,0.708,0.212,1.769-0.071,2.406c-0.283,0.636-2.405,3.042-2.9,4.527
		s-2.688,3.538-3.608,4.174c-0.92,0.637-1.698,0.991-2.405,0.991c-0.708,0-1.698,0.778-2.335,1.061s-1.557,0.071-1.98,0.283
		c-0.425,0.213-1.698,1.698-1.981,1.698c-0.283,0-1.131,0.849-1.344,1.698c-0.212,0.849-1.627,2.264-1.627,2.971
		s0.778,1.274,0.354,1.698c-0.425,0.424-0.778,0.283-0.778,0.283l-0.283,0.919c0,0-0.23,0.694-0.571,0.908
		c-0.34,0.213-0.638,0.768-0.766,1.792c-0.127,1.024-1.022,1.792-1.32,2.261c-0.298,0.469-5.151,4.479-5.109,5.162
		c0.042,0.682,0.936,0.256,1.192-0.085c0.255-0.341,0.426,0.17,0.042,0.512c-0.383,0.342-0.639,1.621-0.127,1.579
		c0.511-0.042,1.575-2.005,1.575-0.981s0.042,2.09,0.298,2.047s0.681-1.28,0.681-0.683c0,0.598-0.085,2.091,0.17,2.176
		s0.681-1.664,0.809-1.195c0.128,0.47-0.425,1.408,0.213,1.408c0.639,0,1.32-0.512,1.32,0c0,0.512-0.554,1.493-0.554,1.493
		s2.214,2.09,2.64,0.981s0.767-1.664,0-2.133c-0.767-0.47-1.405-1.408-1.916-1.835c-0.511-0.426-0.852-0.682-0.724-1.066
		s1.49-2.261,1.49-2.261s1.916-1.706,2.555-2.517s2.98-2.815,3.278-3.37c0.298-0.555-0.042-0.981,0.298-1.024
		c0.34-0.042,0.894,0.938,1.277,0.427c0.383-0.512,3.424-3.349,3.424-3.932c0-0.583-1.007-1.908-0.424-2.067
		c0.583-0.159,1.272-0.053,1.272-0.424c0-0.371-0.371-0.954,0.212-1.006c0.583-0.053,1.378,0.477,1.749,0.053
		c0.371-0.424,0.424-0.477,0.636-0.424c0.212,0.053,0.366,0.101,0.366-0.243c0-0.345,0.057-0.688,0.315-0.688
		c0.257,0,0.744,0.889,1.087,0.746c0.343-0.144,0.772-0.115,0.772-0.373s-0.143-0.603,0.172-0.688
		c0.314-0.086,0.687,0.201,0.916,0.459c0.229,0.258,0.687,0.688,0.773,0.315s0.086-0.717,0.314-0.717
		c0.229,0,1.345-0.086,1.46-0.315s-0.143-0.631,0.286-0.717s1.402,0.201,1.746,0.057c0.343-0.143,1.402-1.233,1.431-1.634
		c0.029-0.402,0.229-0.774,0.573-1.119c0.344-0.344,1.459-1.577,1.66-1.577c0.2,0,1.459,0.917,1.688,0.631s-0.028-0.803,0.229-0.889
		c0.257-0.086,1.833-1.849,1.91-2.388s-3.313-2.966-3.429-3.352s1.002-0.693,0.655-1.233s-1.156-0.963-0.501-1.271
		c0.655-0.309,2.003-0.309,2.312-0.309c0.308,0,0.27,0.116,0.771,0.617c0.5,0.5,1.58,0.963,1.849,0.925
		c0.27-0.039,0.501-0.54,0.501-0.54s0.27-0.424,0.616-0.077s0.154,0.771,0.809,0.848c0.655,0.077,1.216,0.304,1.411-0.32
		c0.195-0.624,1.17-2.105,1.404-2.223c0.234-0.117,0.741,1.677,1.014,1.014c0.273-0.663,0.468-1.442,0.897-1.092
		c0.429,0.351,0.312,1.131,1.092,1.092c0.78-0.039,1.053-0.117,1.053-0.312c0-0.195,0.078-1.248,0.429-0.896
		s-0.273,1.053,0.429,1.092c0.702,0.039,1.793,1.014,1.833,1.443c0.039,0.429-0.546,0.39-0.078,0.896
		c0.468,0.507,0.624,0.975,0.468,1.755c-0.156,0.78-0.468,1.208-0.156,1.208s0.897-0.312,1.053,0.078
		c0.156,0.39-0.039,0.546,0.468,0.897c0.507,0.351,0.663,0.39,0.39,0.741s-0.936,0.663-0.936,1.209c0,0.545,0.234,1.248,0.507,1.052
		c0.273-0.195,1.833-1.208,1.833-1.599c0-0.39,0.078-0.585-0.195-0.78c-0.272-0.195-1.599-0.975-1.014-1.208
		s1.248-0.468,0.897-0.897c-0.351-0.429-1.248-1.014-1.248-1.014s1.13-1.092,0.624-1.599s-1.442-1.404-2.066-2.028
		c-0.624-0.624-1.169-1.793-1.521-1.793s-1.248-0.039-0.936-0.468s0.897-0.507,0.507-1.326c-0.39-0.819-0.741-1.248-0.896-1.482
		C143.802,58.896,142.705,58.171,142.705,58.171L142.705,58.171z M130.031,53.834c0,0-0.636-0.742-0.848-1.113
		c-0.212-0.371-1.325-1.007-1.378-1.484s0.053-0.901-0.212-0.901s-1.166,0.053-1.855-0.053s-0.424-0.901-0.901-0.795
		c-0.477,0.106,0,0.954-0.318,1.272c-0.318,0.318-0.848-0.583-1.431-0.53c-0.583,0.053,0.265,0.636,0.371,1.219
		c0.106,0.583,0.583,0.424,0.583,0.424s0.689,1.113,1.431,1.696c0.742,0.583-0.212,0.424,0.583,0.954
		c0.795,0.53,0.742-0.053,1.749,0.424c1.007,0.477,0.742-0.106,1.59-0.159c0.848-0.053,1.166,0.53,1.377,0.318
		C130.984,54.894,130.031,53.834,130.031,53.834L130.031,53.834z M129.621,46.753c0,0-0.596,0.725-0.766,1.194
		s-0.511,0.938,0.042,1.237c0.554,0.299,0.213,0.555,0.894,0.726c0.681,0.17,1.362-0.597,1.107-1.365
		c-0.255-0.768-0.639-0.896-0.639-1.28c0-0.384-0.127-0.683-0.127-0.683L129.621,46.753L129.621,46.753z M147.662,44.196
		c0,0-2.3,1.949-2.847,2.495c-0.545,0.546-0.195,1.131-0.819,1.209c-0.624,0.078-2.339,0.195-2.885,0.78s-0.507,2.534-0.039,3.081
		c0.468,0.545,2.223,1.677,2.223,1.248c0-0.429-1.287-1.482-0.819-1.677s1.169,0.312,1.443,0c0.273-0.312,1.988-0.663,1.638-1.365
		c-0.351-0.702-1.092-1.091-0.546-1.481s0.975-0.039,0.975-0.624s0.273-0.78,0.663-0.936c0.39-0.156,0.39-0.624,0.429-1.014
		c0.039-0.39,0.507-0.624,0.585-0.78C147.74,44.976,147.662,44.196,147.662,44.196L147.662,44.196z M124.938,42.401
		c0,0,0,0,0.639-0.256s0.127,0.384,0.341,1.152c0.213,0.768,0.511,0.811,0.17,1.237c-0.341,0.426-1.021,1.28-1.447,1.237
		c-0.426-0.043-0.127-0.811-0.298-0.896c-0.17-0.085-0.724,0.469-1.064,0.298c-0.341-0.17-0.213-0.896-0.554-1.322
		c-0.341-0.427-0.34,0.512-0.596,1.024c-0.255,0.512-0.553,0.17-0.724-0.341c-0.17-0.512-1.362-0.555-1.49-1.322
		c-0.127-0.768,0.639-0.597,0.979-0.896c0.34-0.298,0-0.597,0.681-0.597s0.511,0.64,0.766,0.725
		c0.256,0.085,0.426-0.085,0.426-0.725c0-0.64,0.425-0.683,1.149-0.512C124.64,41.378,124.938,42.401,124.938,42.401z"/>
	<path fill-rule="evenodd" clip-rule="evenodd" fill="#FEFEFE" d="M191.422,34.017c0,0-0.38-0.495-0.837,0
		c-0.457,0.495-0.57,0.381-1.142,0.076c-0.571-0.304-1.027-0.228-1.637-0.228s-0.951,0.152-1.979,0.114
		c-1.028-0.039-1.637,0-2.513,0.608c-0.875,0.609-0.875,0.99-1.483,1.142c-0.609,0.152-0.914-0.723-1.294-0.647
		c-0.381,0.076-0.343,0.152-0.952,0.152c-0.608,0-2.055-1.408-2.777-0.951c-0.724,0.457-0.914,0.837-1.333,0.837
		c-0.418,0-1.483-0.495-2.245,0.076c-0.761,0.571-1.104,0.799-1.332,0.38c-0.229-0.418-0.664-0.805-1.524-1.565
		c-0.862-0.76-1.014-1.216-2.787-1.317c-1.773-0.102-2.128-0.558-2.432-0.254c-0.304,0.304-0.76,0.608-1.115,0.254
		c-0.354-0.355-0.456-0.709-0.861-0.406s-0.861,0.355-1.114,0.304c-0.254-0.05-0.811-0.709-1.014-0.506
		c-0.202,0.203-0.196,0.938-0.885,0.938c-0.688,0-1.892-0.035-1.892,0.344c0,0.379-0.929,1.207-0.826,1.62
		c0.104,0.414-0.035,1-0.172,1.655c-0.138,0.655-0.551,0.862-0.551,1.482s-0.267,2.423-0.2,2.825s1.002,0.803,0.801,1.271
		c-0.2,0.469-0.601,0.603-0.734,1.071c-0.133,0.468-1.268,0.268-1.135,1.137c0.134,0.87,1.202,1.271,1.536,1.339
		c0.333,0.066,0.668,0.736,1.002,1.271s1.803,0.401,1.736,1.004c-0.067,0.602-0.067,2.811-0.067,4.349
		c0,1.539-0.468,3.346-0.134,4.484c0.335,1.137,0.802,1.271,0.869,2.141c0.066,0.87,0.133,1.539,0.133,1.539
		s-3.362,3.609-4.017,5.979c-0.653,2.37-1.145,6.783-1.145,7.273s0,0.49,0,0.49s1.104-2.656,2.37-4.74s4.495-6.129,5.312-6.701
		c0.817-0.572,1.512-1.063,2.166-1.185c0.653-0.123,1.087,0.278,1.806,0.082c0.72-0.197,2.419-0.523,2.419-0.523
		s0.065,5.426,0,6.407s-0.131,2.942-0.131,2.942s-4.772,0.915-5.818,2.484c-1.046,1.569-2.746,3.334-2.746,3.334
		s2.812-0.392,4.185-0.784c1.373-0.393,3.465-1.046,3.988-1.112c0.522-0.065,0.588,0.393,0.588,0.393s0.458,2.484,0.458,3.53
		s-0.065,1.111,0.262,2.419c0.326,1.308,0.326,1.961,0.326,2.288c0,0.327,0.065,0.719,0,1.896c-0.065,1.176-0.653,1.896,0.065,2.746
		c0.72,0.85,0.458,1.177,0.458,2.092c0,0.916,0,1.634,0,2.942s0.131,2.942,0.065,3.661s-1.276,0.913-1.654,1.669
		s-3.972,2.742-5.106,3.499c-1.135,0.757-2.837,1.797-3.31,2.742c-0.473,0.946-2.364,2.27-2.364,2.27s41.701-0.283,42.08-0.283
		c0.378,0-22.695-5.674-22.695-5.674s0.757-3.688,0.474-4.539c-0.284-0.851-0.757-1.607-0.379-2.081
		c0.379-0.473,0.379-1.418,0.379-2.364s-0.189-3.121-0.189-4.917c0-1.797,0.189-3.877,0.189-3.877s1.04,1.513,1.04,2.175
		c0,0.662,0.756,1.418,0.945,1.891s-0.189,1.324-0.189,2.458s-0.188,3.593-0.188,4.633c0,1.041-0.189,4.255-0.189,4.728
		c0,0.473,1.04,1.797,1.04,1.797l6.903,1.135l0.095-3.404c0,0-1.04-2.742-0.852-4.917c0.189-2.175,0.189-3.688,0.189-5.012
		s0.378-2.932,0.283-4.539c-0.094-1.607,0.189-3.877,0.474-4.917c0.283-1.04,1.588-1.192,2.724-1.021
		c1.135,0.17,4.144,0.967,6.018,3.355c1.873,2.389,2.725,5.403,3.064,6.598c0.342,1.194,0.455,2.389,0.455,3.64
		c0,1.251-0.228,1.707,0.057,2.617c0.283,0.91,0.283,1.137,0.283,2.047c0,0.91-0.113,0.91,0,1.592s0.341,1.593,0.341,2.446
		s-0.228,3.128-0.228,3.128l7.096,0.569c0,0,2.215-0.967,1.987-3.583s-1.76-3.867-1.76-3.867s0.284-1.309,0-1.764
		c-0.284-0.455-0.227-1.251-0.17-1.877c0.057-0.625,0.057-0.625,0.057-1.706c0-1.081,0-1.877,0.17-2.503
		c0.171-0.625,1.192-1.421,1.192-1.421s0.454,1.194,0.454,1.82s-0.625,1.479-0.113,2.161c0.511,0.683,0.624,1.536,0.624,2.218
		c0,0.683,0.511,0.456,0.511,0.91s0.284,2.616,0.284,3.071s0.113,1.194-0.284,2.104s-0.397,1.82-0.397,2.161
		c0,0.342,0,1.707,0,1.707s6.415,0.569,7.437,0.455c1.022-0.114,2.271-0.967,2.214-1.536s-0.113-1.706-0.113-2.673
		s-0.057-3.526-0.511-5.574c-0.455-2.048-0.397-3.242-0.965-4.607s-1.192-2.616-1.192-3.128s-0.284-1.991-0.568-2.389
		c-0.283-0.398-0.529-1.365-0.457-2.203c0.073-0.838-0.474-3.533-0.183-3.57c0.292-0.036,1.468,0.148,2.292-0.623
		s0.989-1.926,0.989-1.926s-0.989-1.431-2.308-2.752s-2.197-2.532-2.197-2.532s-0.686-1.601-0.748-2.78
		c-0.062-1.179-0.805-3.04-0.805-3.04s-0.113-1.802-1.023-4.048s-2.125-5.828-3.643-7.588c-1.518-1.761-3.581-3.825-4.978-4.675
		c-1.396-0.85-5.04-2.536-5.04-2.536s0.332-1.326,0.415-3.232c0.082-1.906-0.829-2.984-1.824-4.227
		c-0.994-1.243-3.325-4.385-3.877-4.385C192.845,33.778,191.422,34.017,191.422,34.017z"/>
	<path fill-rule="evenodd" clip-rule="evenodd" fill="#373435" d="M191.422,34.017c0,0-0.38-0.495-0.837,0
		c-0.457,0.495-0.57,0.381-1.142,0.076c-0.571-0.304-1.027-0.228-1.637-0.228s-0.951,0.152-1.979,0.114
		c-1.028-0.039-1.637,0-2.513,0.608c-0.875,0.609-0.875,0.99-1.483,1.142c-0.609,0.152-0.914-0.723-1.295-0.647
		c-0.38,0.076-0.342,0.152-0.951,0.152c-0.608,0-2.055-1.408-2.777-0.951c-0.724,0.457-0.914,0.837-1.333,0.837
		c-0.418,0-1.483-0.495-2.245,0.076c-0.761,0.572-1.104,0.8-1.332,0.381c-0.228-0.418-0.664-0.805-1.524-1.565
		c-0.862-0.76-1.014-1.216-2.787-1.317c-1.773-0.102-2.128-0.558-2.432-0.254c-0.304,0.304-0.76,0.608-1.115,0.254
		c-0.354-0.355-0.456-0.709-0.861-0.406c-0.405,0.305-0.861,0.355-1.113,0.304c-0.255-0.05-0.812-0.709-1.015-0.506
		c-0.202,0.203-0.196,0.938-0.885,0.938c-0.688,0-1.892-0.035-1.892,0.344c-0.001,0.379-0.929,1.207-0.826,1.62v0.002l0.001,0.003
		c0.008,0.031,0.014,0.062,0.02,0.095c0.055,0.189,0.262,0.548,1.028,0.13c0.999-0.546,1.044-1.183,1.407-1.319
		c0.363-0.137,0.591-0.592,1.317-0.501c0.727,0.091,0.727,0,1.09-0.045s1.271,0,1.271,0.319s-0.636,1.365-0.817,1.547
		c-0.182,0.183-0.681,0.546-1.045,0.455c-0.363-0.091,0.454-1.547,0.046-1.638s-0.731-0.274-1.251,0.478
		c-0.521,0.751-0.565,1.161-1.429,1.935c-0.862,0.773-0.636,1.137-1.271,1.274c-0.335,0.072-0.744,0.244-1.09,0.451
		c-0.013,0.66-0.265,2.387-0.2,2.778c0.066,0.402,1.002,0.803,0.801,1.271c-0.2,0.469-0.601,0.603-0.734,1.071
		c-0.133,0.468-1.268,0.268-1.135,1.137c0.134,0.87,1.202,1.271,1.536,1.339c0.333,0.066,0.668,0.736,1.002,1.271
		c0.333,0.535,1.803,0.401,1.736,1.004c-0.067,0.602-0.067,2.811-0.067,4.349c0,1.539-0.468,3.346-0.134,4.484
		c0.335,1.137,0.802,1.271,0.869,2.141c0.066,0.87,0.133,1.539,0.133,1.539s-3.362,3.609-4.017,5.979
		c-0.653,2.37-1.145,6.783-1.145,7.273s0,0.49,0,0.49s1.008-2.427,2.203-4.46c-0.045-1.126-0.063-2.575,0.087-3.327
		c0.267-1.338,3.205-5.152,3.807-5.487c0.601-0.334,1.202-0.2,1.269,0.201s-0.4,1.673-0.4,1.673l-0.866,1.636
		c0.701-0.834,1.294-1.473,1.583-1.676c0.817-0.573,1.512-1.063,2.167-1.185c0.652-0.122,1.086,0.278,1.805,0.082
		c0.72-0.197,2.42-0.523,2.42-0.523s0.064,5.426-0.001,6.407s-0.131,2.942-0.131,2.942s-0.77,0.147-1.76,0.426
		c1.406-0.12,2.539-0.363,2.931-0.815c1.335-1.539,4.407-7.427,4.942-10.171c0.534-2.743,0.935-2.743,1.335-2.743
		c0.4-0.001,0.669,0.803,0.669,0.803s-0.335,1.673-0.335,2.208c0,0.536-0.334,2.811-0.935,4.082
		c-0.602,1.271-1.27,3.079-1.937,3.948c-0.668,0.87-2.471,2.811-3.14,3.48c-0.668,0.669-1.135,1.271-1.869,1.472
		c-0.735,0.201-0.936-0.334-1.403,0.268c-0.467,0.602-1.068,0.803-1.068,0.803l-0.935-1.405c0,0-1.336,0-1.469,0.603
		c-0.134,0.602-0.669,0.937-1.069,1.003c-0.152,0.025-0.717,0.271-1.359,0.568c-0.642,0.749-1.162,1.29-1.162,1.29
		s2.811-0.392,4.184-0.784c1.373-0.393,3.465-1.046,3.988-1.112c0.522-0.065,0.588,0.393,0.588,0.393s0.458,2.484,0.458,3.53
		s-0.065,1.111,0.262,2.419c0.326,1.308,0.326,1.961,0.326,2.288c0,0.209,0.028,0.446,0.03,0.898
		c0.285-0.754,0.743-2.013,0.743-2.322c0-0.449-1.002-1.832-0.656-2.073c0.346-0.242,0.794-0.139,0.794-0.691
		s-0.13-4.046-0.13-4.046s0.659-0.152,0.659-0.659c0-0.507,0.152-0.709,0.152-0.709s1.215,0.81,1.672,0.456
		c0.456-0.355,0.354-1.267,0.354-1.267s1.824,0.253,1.723,0.862c-0.102,0.608-0.152,1.013,0.354,1.063s0.456,0.254,0.456,0.912
		c0,0.659-0.102,2.736,0.253,2.837c0.354,0.102,0.761,0.811,0.761,1.571c0,0.76-0.203,1.773-0.203,1.773s-0.963-0.102-0.811,1.418
		c0.151,1.52,0.304,3.04-0.051,3.901s-0.607,1.52-0.152,1.723c0.456,0.202,0.507,0.76,0.456,1.317
		c-0.051,0.558-0.354,1.672-0.051,1.773c0.304,0.102,0.761,0.811,0.507,1.368c-0.253,0.557-0.793,1.193-0.525,1.951
		c0.268,0.758,1.025,0.803,0.669,1.651c-0.357,0.847-0.848,1.471-1.071,1.605c-0.223,0.134-0.49,0-1.382-0.045
		c-0.893-0.044-1.159,0.268-1.338,0.491s-0.892-0.357-1.383-0.847c-0.328-0.329-0.878-0.92-1.325-1.313
		c-0.291,0.518-1.244,0.751-1.571,1.407c-0.378,0.756-3.972,2.742-5.106,3.499c-1.135,0.757-2.837,1.797-3.31,2.742
		c-0.473,0.946-2.364,2.27-2.364,2.27s41.701-0.283,42.08-0.283c0.378,0-22.695-5.674-22.695-5.674s0.757-3.688,0.474-4.539
		c-0.284-0.851-0.757-1.607-0.379-2.081c0.378-0.473,0.379-1.418,0.379-2.364s-0.189-3.121-0.189-4.917
		c0-0.646,0.025-1.329,0.057-1.939l-0.001-0.001c0,0-0.074-4.591-0.074-5.413c0-0.822,0.884-0.948,1.136-1.643
		c0.252-0.695-0.023-4.94-0.182-6.091s-0.476-0.992-1.03-0.873c-0.554,0.119-0.673-0.278-1.108-0.793s-1.188-0.08-1.387-0.08
		c-0.197,0-0.515-0.317-0.515-0.833c0-0.516,0.356-0.992,0.911-2.063c0.555-1.072,0.871-2.341,1.307-3.254s1.058-4.719,1.058-5.477
		c0-0.759,0.694-2.718,0.694-2.718s0.756-0.822,1.071-0.442c0.315,0.379-0.189,2.085-0.441,2.654
		c-0.252,0.569-0.315,3.097,0.063,3.666c0.379,0.568,0.378-2.022,0.378-2.022s0.506,0.253,0.632-0.758s0.378-2.338,1.135-2.338
		s0.189,1.201,0.189,3.097s0.946,1.896,1.64,1.39s3.135-5.293,3.215-5.535c0.08-0.241,0.2-0.764,0.962-1.606
		c0.762-0.843,1.202-0.563,1.402-1.004c0.2-0.442,0.682-1.365,0.36-1.646c-0.32-0.281-0.721,1.245-1.482,1.366
		c-0.761,0.12-0.36-0.442-0.36-1.165c0-0.722-0.08-1.004-0.962-0.642c-0.881,0.361-2.228,0.679-2.373,0.358
		c-0.146-0.321,0.058-0.7,0.407-0.817c0.35-0.116,0.292-0.408,0.35-0.816c0.059-0.408,0.32-0.087,0.756-0.029
		c0.438,0.059,0.408,0.437,0.583,0.7s0.291-0.263,0.437-0.612c0.146-0.35-0.116-0.846-0.698-0.846c-0.582,0-0.35-0.7-0.466-1.255
		c-0.117-0.554,0.349-0.496,0.728-0.554c0.379-0.058,0.553-0.087,0.815-0.612c0.262-0.525,2.212,0.088,2.648,0.117
		c0.438,0.029,0.466-0.583,0.611-0.758c0.146-0.175,0.845,0.438,1.311,0.438s0.291-0.555,0.757-0.992
		c0.466-0.438,0.436-0.467,0.902-0.496c0.466-0.029,0.146-0.554-0.379-0.816c-0.523-0.263-0.961,0.671-1.659,0.379
		c-0.698-0.292-0.611-0.7-0.961-0.7c-0.349,0-1.426,0.233-1.775,0.233s-0.466-0.35-0.087-1.05c0.378-0.7-0.554-0.525-1.048-0.408
		c-0.495,0.116-1.048,0.671-1.485,0.758c-0.436,0.087-0.553-0.146-0.553-0.671s-0.063-0.845,0.378-0.908
		c0.442-0.063,1.136-0.505,1.136-1.454c0-0.948-0.789-0.892-0.789-0.199c0,0.693-0.79,0.495-1.136,0.94
		c-0.346,0.445-0.148,2.275-0.148,3.264c0,0.989-0.592,2.77-0.986,3.264c-0.396,0.494-0.05,1.434,0,1.731
		c0.049,0.297-1.037,0.297-1.432,0.544c-0.396,0.248-0.197,0.594-0.197,1.583s-0.396,2.176-0.544,2.572
		c-0.147,0.396-0.592,1.137-0.592,0.099s-0.494-0.346-0.987-0.297c-0.493,0.05-1.234,0.198-1.48-0.049
		c-0.247-0.248-0.247-0.841-0.741-0.544c-0.493,0.297-0.642,3.067-0.888,3.413c-0.247,0.346-0.987,0-1.186-0.445
		c-0.197-0.445-0.288-2.149-0.287-3.402c-0.001-1.253,0.677-2.438,0.98-3.318c0.306-0.88,1.151-1.659,1.728-1.93
		c0.575-0.271,1.354,0,2.133,0c0.778,0,0.44-0.609,0.575-0.914c0.136-0.305,0.948,0.305,1.219,0.305
		c0.271,0,0.406-0.067,0.677-0.271s0.406-1.591,0.406-2.133c0-0.542,0.305-0.914,0.609-0.914c0.306,0,0.576-0.813-0.032-0.813
		c-0.61,0-1.635-0.126-2.855,0.904c-1.222,1.03-3.664,2.833-4.241,3.477c-0.579,0.644-1.929,4.572-1.929,5.473
		c0.001,0.902-0.192,3.478-0.449,4.314c-0.258,0.837-1.672,1.545-2.571,2.189c-0.899,0.644-2.57,0.644-3.148,0.772
		s-1.479,0.708-1.479,0.708s-0.835-0.451-1.221-0.451s-0.964,0.515-0.964,0.515s-1.992-0.837-2.635-0.965
		c-0.643-0.129-0.964-0.902-1.222-2.125c-0.256-1.224-1.027-0.901-1.027-0.901s0-0.773,0.257-0.773c0.258,0,1.285,0.193,1.285-0.644
		c0-0.837-1.221-1.159-1.221-1.159l0.321-0.901l-0.515-1.288c0,0-0.257-1.288,0.321-1.288s0-1.545,0.065-2.382
		c0.063-0.837,0.385-1.03,0-1.288c-0.386-0.257-0.579-1.288-0.579-1.803c0-0.515-0.771-0.257-1.478,0
		c-0.708,0.258,0,1.224-0.386,1.224s-0.129-0.515-0.515-0.837c-0.386-0.322-1.028-0.708-1.028-0.708s0.836-0.966,1.35-1.353
		c0.515-0.387,1.35-0.386,2.057-0.064s1.606,0.258,1.735,0.58c0.128,0.322,1.606,1.738,1.671,2.318s-0.964,0.644-0.964,0.644
		s-0.579,0.966-0.45,1.417c0.128,0.451,1.028-0.128,1.992,0.258s-1.093,1.159-1.092,1.803c-0.001,0.644,0.256,0.773,0.578,1.223
		c0.32,0.451-1.351,1.288-1.351,1.288s0.707,0.386,1.351,0.387c0.642,0,1.285,0.064,1.285,0.644s-1.606,1.159-1.929,1.288
		c-0.321,0.129,0.321,0.515,0.836,0.515c0.514,0,1.156-0.257,1.221,0.387c0.064,0.644,0.771-0.129,1.414,0.515
		c0.643,0.644,1.028,2.253,1.028,2.253s0.129-1.932,0.386-2.318c0.257-0.386,0.835,0.065,0.836-0.644
		c-0.001-0.708-1.479-0.902-1.608-1.867c-0.128-0.966,0.322-0.515,0.836-0.901c0.515-0.387,1.286,0.257,1.735-0.902
		c0.449-1.159-2.506-0.45-2.57-1.352c-0.064-0.901-0.193-3.477,0.128-3.992c0.321-0.515,1.093-0.58,1.543-1.288
		s-1.028-1.996-1.028-2.447c0-0.451,0.257-0.644,0.899-0.902c0.643-0.257,0.192-0.966-0.257-1.352
		c-0.45-0.386-0.835-2.833-0.771-3.219c0.064-0.386-0.707-0.902-1.35-0.644c-0.642,0.257-0.964-0.064-1.093-0.966
		c-0.128-0.901-0.899-0.128-1.156,0.193c-0.257,0.323-0.514-0.257-0.514-0.708c0-0.451,0.643-0.837,0.899-1.417
		c0.257-0.58,1.35-0.451,1.735-0.064c0.385,0.386,1.285,0,2.12,0.193c0.836,0.193,1.222,0.901,1.222,0.901s0.404,0.305,0.686,0.411
		c0.281,0.106,0.558,1.219,0.558,1.219s0.29,0.264,0.793,0.714c0.501,0.45,0.448,0.106,1.029-0.317s0.396-1.006,1.029-0.794
		s0.555,0.397,0.793,1.005c0.237,0.609-0.661,0.503-0.714,0.926c-0.053,0.423,0.995,0.861,1.464,0.626
		c0.468-0.235,0.512-1.173,0.872-1.578c0.362-0.405,0.405-0.854,0.831-1.195c0.426-0.341,0.468,0.128,0.702,0.384
		c0.234,0.255,0.404,0.426,0.702,0.661c0.298,0.234,0.511,0.554,1.129,0.512c0.616-0.043,0.426,0,1.255,0.426
		c0.831,0.426,0.618-0.107,1.129-0.768c0.512-0.661,0.446-0.725,0.81-1.258c0.361-0.533,0.468-0.256,0.957-0.533
		c0.49-0.278,2.304-0.089,2.482,0.179c0.179,0.268,0.446,0.49,0.848,0.847s0.669,0.534,0.445,0.981
		c-0.223,0.445,0.135,0.713,0.491,1.292c0.356,0.58,0.089,1.784,0.089,2.364s0.313,0.044,1.383,0.178s0.49-0.089,1.605-0.58
		c1.114-0.49,1.025,0.223,1.738,0.313c0.715,0.089,0.581-0.089,0.625-0.758c0.044-0.669,0.268-0.758,0.58-1.115
		c0.312-0.357,0.134-0.848-0.58-1.829s-1.025-0.981-1.383-0.535c-0.356,0.445,0.401,0.847,0.58,1.471
		c0.178,0.625-0.045,1.249-0.134,1.65s-0.848,0.089-0.892-0.223c-0.045-0.313,0.089-0.892,0.179-1.249
		c0.089-0.356-0.18-0.713-0.67-0.535c-0.49,0.179-0.758,1.382-0.937,2.007c-0.178,0.625-0.98,0.134-1.338,0
		c-0.356-0.134-0.044-0.981-0.044-1.828c0-0.848,0.178-0.134,0.49-0.535s-1.694-1.695-1.694-2.141c0-0.446,0.224-0.401,0.937,0.044
		c0.713,0.446,0.579,0.044,0.669-0.401c0.089-0.446,1.025-0.044,1.204,0.446c0.179,0.491,0.134,1.695,0.713,1.695
		c0.58,0,0.67-1.784,0.937-2.319c0.268-0.535,0.758-0.313,1.07,0.089s0.357,0.758,1.07,1.65c0.714,0.892,0.848,0.937,1.784,1.561
		c0.937,0.625,0.856,0.881,0.856,1.922c0,1.041,0.981,0.462,1.386,0.925s0.79,1.611,0.173,2.487
		c-0.616,0.876-0.75,0.405-1.271,0.983c-0.52,0.578,0.578,1.388,0.925,1.677c0.346,0.29-0.115,0.81-0.463,1.735
		c-0.346,0.926-0.462,0.462-1.385,0.636c-0.924,0.174,0.173,0.983,0.751,1.562c0.577,0.579,0,1.273-0.462,1.793
		c-0.462,0.52-0.511,1.906-0.566,2.104c-0.057,0.197-0.281-0.029-0.76-0.367c-0.479-0.339-0.704-0.057-0.761,0.366
		c-0.056,0.423,0.788,1.692,0.563,2.115c-0.226,0.423-1.214,1.372-1.368,1.661c-0.155,0.289-0.467,0.644-0.954,1.153
		c-0.488,0.51-0.178,1.287-0.843,0.954c-0.666-0.333-0.799-0.688-1.021-0.577s-0.199,1.265-0.354,1.375
		c-0.156,0.111-0.621-0.244-1.087-0.843c-0.467-0.599-0.532,0.044-0.776,0.599c-0.244,0.555,1.316,1.207,1.341,1.659
		c0.024,0.453-0.256,0.404-0.843,0.918c-0.586,0.513-1.796,0.839-2.152,1.276s-0.831-0.317-1.307-0.238s-0.594,0.992-0.911,1.23
		c-0.316,0.238-0.555,0.198-1.505,0.357c-0.95,0.159-0.753,0.516-1.346,0.635c-0.595,0.119-0.317,0.675,0.316,1.27
		c0.633,0.596,1.465-0.198,1.9-0.119c0.436,0.079,0.752,0.793,1.149,1.349c0.396,0.556,0.277,1.072,0.078,1.786
		c-0.197,0.714,0.119,0.992,1.269,1.429c1.147,0.437,0.676,0.364,0.676,0.806s0.504,1.201,0.883,1.707
		c0.379,0.505,0.189,0.568-0.82,0.631s-0.188,2.591-0.188,3.349c0,0.759-0.189,1.517-0.758,1.77
		c-0.567,0.253-0.189,0.822,0.505,1.264s-0.188,0.885-0.82,1.454c-0.63,0.569,0.913,1.978,0.913,2.824
		c-0.001,0.846-0.088,0.555-0.989,1.138c-0.903,0.583,0.145,1.167,0.756,1.925c0.611,0.758-0.466,2.392-0.641,2.538
		c-0.174,0.146-0.495-0.059-0.757-0.554c-0.262-0.496-0.728,0.292-0.728,0.991c0,0.7-0.35,0.292-1.311,0.671
		c-0.96,0.379-0.932,0.058-1.28-0.379c-0.35-0.438-0.407-1.079-0.087-1.867c0.32-0.787-0.815-0.729-0.758-1.545
		c0.059-0.817,1.361-0.26,1.682-0.862c0.32-0.602-1.162-0.562-1.643-0.683c-0.481-0.12-0.08-0.522-0.521-1.325
		c-0.44-0.804-0.761-2.048-0.761-2.931s-0.2-2.409-0.681-1.846c-0.246,0.287-0.355,1.504-0.404,2.628
		c0.304,0.501,0.699,1.233,0.699,1.642c0,0.662,0.756,1.418,0.944,1.891c0.19,0.473-0.188,1.324-0.188,2.458
		s-0.188,3.593-0.188,4.633c0,1.041-0.189,4.255-0.189,4.728c0,0.473,1.04,1.797,1.04,1.797l6.903,1.135l0.095-3.404
		c0,0-1.04-2.742-0.852-4.917c0.189-2.175,0.189-3.688,0.189-5.012s0.378-2.932,0.283-4.539c-0.094-1.607,0.189-3.877,0.474-4.917
		c0.283-1.04,1.588-1.192,2.724-1.021c1.135,0.17,4.144,0.967,6.018,3.355c1.873,2.389,2.725,5.403,3.064,6.598
		c0.342,1.193,0.455,2.389,0.455,3.64c0,1.251-0.227,1.707,0.057,2.617c0.283,0.91,0.283,1.137,0.283,2.047
		c0,0.91-0.113,0.91,0,1.592s0.341,1.593,0.341,2.446s-0.228,3.128-0.228,3.128l7.096,0.569c0,0,2.215-0.967,1.987-3.583
		s-1.76-3.867-1.76-3.867s0.284-1.309,0.001-1.764c-0.285-0.455-0.228-1.251-0.171-1.877c0.057-0.625,0.057-0.625,0.057-1.706
		c0-1.081,0-1.877,0.17-2.503c0.032-0.118,0.096-0.244,0.176-0.369c-0.002-0.026-0.206-3.015-0.758-4.121
		c-0.555-1.111-1.188-3.492-3.169-4.603c-1.979-1.111-4.673-2.222-5.94-3.016c-1.267-0.793-3.089-1.429-2.297-2.222
		c0.792-0.794,1.03,0.476,2.456,0.555c1.425,0.079,2.693,0.159,2.297-0.396c-0.396-0.556-1.822-1.27-0.872-1.826
		c0.951-0.555,1.03-1.111,0.556-1.349c-0.477-0.238-1.427,1.111-2.06,1.111c-0.634,0-1.585,0.555-2.139-0.159
		c-0.555-0.714-0.676-1.663-0.324-1.956s0.059-0.879-0.703-0.879s-1.7-0.527-1.7,0.293s0.47,1.993,0,2.461
		c-0.468,0.469-0.059,1.465-0.468,2.168c-0.41,0.703-1.055,0.645-1.055,0.645s0.644-2.227-0.06-2.403s-0.586,1.934-1.289,1.934
		c-0.703,0,0.059-1.816-0.293-2.168c-0.352-0.352-0.645,0-0.645-0.821c0-0.82,0.469-1.113,0-1.348
		c-0.469-0.234-0.763-0.234-0.469-0.82c0.293-0.586-0.234-3.047,0.117-3.341c0.352-0.293,1.934-0.937,1.934-1.875
		s-0.117-1.465,0.117-1.934s0.821-0.996,1.055-1.289c0.234-0.293,2.521-2.696,2.521-3.517c0-0.82,0.176-1.934,1.934-2.579
		c1.758-0.645,2.345-1.816,3.751-1.875c1.406-0.058,2.931,0.118,3.457-0.762c0.528-0.879,1.466-1.289,1.817-0.879
		c0.352,0.411,0.293,1.583,0.938,1.583c0.36,0,0.665-0.458,0.864-0.862c-1.401-1.537-3.058-3.122-4.237-3.84
		c-1.396-0.85-5.04-2.536-5.04-2.536s0.332-1.326,0.415-3.232c0.082-1.906-0.829-2.984-1.824-4.227
		c-0.994-1.244-3.325-4.385-3.877-4.385C192.845,33.778,191.422,34.017,191.422,34.017L191.422,34.017z M175.731,87.134
		c0,0,0.407,1.039-0.223,1.039c-0.629,0-0.962-0.223-0.926-0.557c0.037-0.333,0.334-0.371,0.519-0.519
		C175.287,86.948,175.731,87.134,175.731,87.134L175.731,87.134z M175.804,91.065c0,0,0.519,0.408,0.519,0.705
		s-0.592,0.779-0.999,0.89s-1.407,0.371-1.444,0c-0.037-0.371,0.333-0.779,0.852-0.779S175.804,91.065,175.804,91.065
		L175.804,91.065z M170.98,88.298c0.026,0.008,1.122-0.343,1.122,0.208c0,0.556,0.357,1.161-0.333,1.261
		c-0.69,0.1-0.345-0.096-0.69,0.1C171.079,89.166,171.233,88.81,170.98,88.298L170.98,88.298z M171.079,90.63
		c0.531-0.037,1.309,0.015,1.356,0.621c0.074,0.927,0.334,1.039-0.222,1.521c-0.403,0.35-0.709,0.563-1.13,0.497
		c-0.003-0.156-0.005-0.309-0.005-0.459V90.63L171.079,90.63z M180.947,65.221v0.695c0,0-0.505,0.126-0.758-0.695
		C179.937,64.399,180.947,65.221,180.947,65.221L180.947,65.221z M205.105,53.066c0,0,0.425,0.426,0.425,0.811
		s-0.468,0.042-0.808-0.171C204.38,53.493,205.105,53.066,205.105,53.066L205.105,53.066z M182.501,41.485l-0.53,0.636
		c0,0-1.431-1.378-0.212-1.855S182.501,41.485,182.501,41.485L182.501,41.485z M171.16,55.053l0.954-0.212
		c0,0,0.477,0.318,0.583,1.007c0.105,0.689,0.105,0.848-0.583,1.484c-0.689,0.636-0.266,0.053-0.266-1.06
		C171.848,55.159,171.16,55.053,171.16,55.053L171.16,55.053z M172.856,51.767c0,0,0.158,0.583,0.105,0.795s-1.007,0-1.537,0
		s-0.318-0.318,0.265-0.636C172.273,51.608,172.856,51.767,172.856,51.767L172.856,51.767z M171,48.852c0,0,0.053,1.06-0.849,1.272
		c-0.9,0.212-1.165,0.053-1.165-0.424s0.158-0.477,0.794-0.424C170.417,49.329,171,48.852,171,48.852L171,48.852z M174.074,49.7
		c0,0,0,0.636-0.265,0.742s-0.953-0.106-0.953-0.371C172.856,49.806,174.074,49.7,174.074,49.7L174.074,49.7z M174.339,46.573
		c0,0,0.424,0.636,0.212,1.007c-0.212,0.371-0.689-0.265-1.061-0.371c-0.37-0.106-1.324-0.318-0.741-0.954
		C173.333,45.619,174.339,46.573,174.339,46.573L174.339,46.573z M174.499,42.863l0.795,0.478c0,0-0.106,0.423-0.424,0.477
		c-0.318,0.053-0.849-0.106-0.954-0.583C173.809,42.757,174.499,42.863,174.499,42.863L174.499,42.863z M172.378,43.022
		c0,0,0.265,0.53,0.106,0.795c-0.159,0.265-0.849,0.053-1.272,0.318s-0.901,0.053-0.53-0.742S172.378,43.022,172.378,43.022
		L172.378,43.022z M192.021,69.088c0,0,0.602,0.268,0.668,0.569c0.067,0.301-0.434,0.602-1.035,0.1
		C191.053,69.256,192.021,69.088,192.021,69.088L192.021,69.088z M190.174,58.016c0,0-0.573,0.144-0.816-0.121
		c-0.244-0.264-0.67-0.853-0.67-1.198c0-0.346-0.086-0.606,0.613-0.169C190,56.965,190.174,58.016,190.174,58.016L190.174,58.016z
		 M209.695,88.09L209.695,88.09c0,0,0.854,2.193,0.99,3.417c0.135,1.223,0.611,1.495,0.747,1.767
		c0.136,0.271-0.552,1.031,0.476,2.106c1.026,1.075,1.087,1.427,0.476,3.125s0.067,1.97,0.814,2.582
		c0.748,0.611,1.768,0.476,2.243,0.476s0.951-0.136,1.019-0.748c0.068-0.611,1.835,0.068,2.446,0.068s0.204-0.815,0.204-1.427
		c0-0.611-0.068-0.883,0.067-1.699s0-1.291-0.407-1.902c-0.408-0.611-0.022-1.606,0.02-2.744c0.043-1.138-0.042-0.969-0.505-1.686
		c-0.462-0.716-0.21-0.843-0.084-1.517s-0.336-0.716-0.756-0.759c-0.421-0.042-0.673-0.379-1.136-0.421s-0.042,1.77-0.295,2.022
		c-0.252,0.253-0.841-0.169-1.135-0.632c-0.295-0.463-0.379-0.674-1.094-1.432c-0.714-0.758-0.589-0.843-0.841-1.433
		c-0.252-0.59-1.009,0.127-1.976-0.842c-0.968-0.969,0.126-1.011,0.673-1.348c0.546-0.337,0.333-1.031,0.401-1.982
		s0.611,0.34,1.631,0.543c1.02,0.204,0.067-0.611,0-2.174c-0.068-1.563,0-0.339,0.339-1.358c0.34-1.02,0-0.679-0.476-1.223
		c-0.475-0.543,0.137-1.902,0.204-3.057c0.068-1.155,0.068-1.835,0-2.854c-0.067-1.019-0.505-0.652-0.846-1.292
		s-0.809-1.365-1.192-2.517c-0.383-1.152-0.809-1.237-0.852-2.005s-0.724-1.578-0.085-2.304c0.639-0.725-0.043-0.981-0.894-1.919
		c-0.852-0.938-0.512-1.408-0.341-2.261c0.17-0.853-0.81-0.512-1.277-0.768c-0.469-0.256-0.298-0.938-0.554-1.237
		s-0.425-0.725-0.639-0.213c-0.213,0.512-0.085,1.066-0.511,1.365c-0.426,0.298-0.469-0.213-0.596-1.109
		c-0.128-0.896-0.554-0.768,0.085-1.365c0.639-0.597,0.17-1.066,0.213-1.322c0.042-0.256,0.809-0.299,0.809-0.299
		s0.241,0.774,0.609,0.979c0.368,0.204,0.449,0.49,0.654,1.226c0.204,0.736,0.734,0.572,0.98,0.736
		c0.245,0.163,0.203,0.245,0.408,0.694c0.204,0.45,0.572,1.021,1.063,1.716c0.49,0.695,0.612,0.777,0.653,2.33
		c0.041,1.552,0.94,1.838,1.39,1.634c0.449-0.205,0-1.471,0.041-2.084c0.007-0.114,0.072-0.247,0.174-0.387
		c0.283,1.151,0.332,1.915,0.332,1.915s0.743,1.861,0.805,3.04c0.063,1.179,0.748,2.78,0.748,2.78l0.005,0.008
		c-0.122,0.512-0.278,1.219-0.389,1.879c-0.204,1.226,0.104,2.15,0.267,2.334c0.162,0.185,0.462,0.647,0.462,1.572
		c0,0.925,1.179,1.225,1.757,0.833c0.578-0.393-0.717-1.225-0.785-1.71c-0.069-0.485,0.115-0.832,0.115-0.832
		s0.947,0.578,1.202,1.017c0.106,0.185,0.76,0.738,1.479,1.316c-0.145,0.271-0.338,0.553-0.598,0.795
		c-0.824,0.771-2,0.586-2.292,0.623c-0.291,0.037,0.256,2.732,0.183,3.57c-0.072,0.837,0.174,1.805,0.457,2.203
		c0.284,0.398,0.568,1.877,0.568,2.389s0.625,1.763,1.192,3.128s0.51,2.56,0.965,4.607c0.454,2.047,0.511,4.606,0.511,5.574
		s0.057,2.104,0.113,2.673s-1.191,1.422-2.214,1.536c-1.021,0.114-7.437-0.455-7.437-0.455s0-1.365,0-1.707
		c0-0.341,0-1.251,0.397-2.161s0.284-1.649,0.284-2.104s-0.284-2.617-0.284-3.071s-0.511-0.228-0.511-0.91
		c0-0.682-0.113-1.536-0.624-2.218c-0.512-0.683,0.113-1.536,0.113-2.161C209.859,88.761,209.784,88.413,209.695,88.09
		L209.695,88.09z M204.368,75.524c0,0,0.68,1.275-0.085,1.445s-2.38-1.445-2.21-1.785S204.368,75.524,204.368,75.524L204.368,75.524
		z M158.493,68.417L158.493,68.417c-0.237-0.772,0.638-1.971,0.972-2.506c0.334-0.536,2.006-1.375,2.006-1.375
		C160.514,65.674,159.357,67.172,158.493,68.417z"/>
	<path fill-rule="evenodd" clip-rule="evenodd" fill="#373435" d="M126.641,120.748l1.102-0.301c0,0,0.602-1.003,1.387-1.003
		c0.786,0,0.524,0.472,1.467,0.683c0.943,0.209,2.148,0.524,2.567,0.997c0.419,0.473,1.048,0.893,1.52,0.84
		c0.472-0.052,1.258-0.157,1.467-0.052s0.838,0.735,2.096,0.63c6.184-0.517,8.637-0.599,13.781,3.675c0,0,7.02-4.271,8.378-4.339
		c1.359-0.068,7.746,0.136,9.173-0.271c1.427-0.408,5.843-1.359,6.727-1.834c0.883-0.476,3.669,0.815,3.669,0.815
		s1.155-0.815,1.494-0.612c0.34,0.204,0.884,2.174,0.884,2.854c0,0.68,0.073,18.229,0.073,18.229s0.179,15.054,0.511,16.049
		c0.332,0.994,0.58,2.9,0.083,3.066c-0.498,0.166-2.569-0.58-2.569-0.58s-13.345,0.911-15.003,0.829
		c-1.657-0.083-8.205,0-9.449,0.911c-1.243,0.912-1.574,1.575-1.574,1.575l-2.321-0.083l-2.818-2.154l-15.583,0.082
		c0,0-8.895,0.495-9.32-0.212c-0.424-0.708,0.071-5.235-0.212-6.227c-0.283-0.989-0.283-4.032-0.142-5.164
		s-0.071-11.249-0.071-11.249s-0.212-16.271,0-17.121s0.424-1.132,1.062-1.132C125.656,119.649,126.641,120.748,126.641,120.748
		L126.641,120.748z M132.612,129.624c0,0-0.189,1.556,0.377,1.509c0.566-0.047,1.038-0.802,0.708-1.179s-0.566-0.377-0.566-0.377
		L132.612,129.624L132.612,129.624z M172.774,148.65c0,0-0.951,0.43-0.613,1.045c0.337,0.615,1.012,0.83,1.165,0.584
		c0.153-0.247,0.062-1.138-0.061-1.292C173.142,148.835,172.774,148.65,172.774,148.65L172.774,148.65z M170.78,149.48
		c0,0-0.584,0-0.338,0.769s0.46,0.738,0.645,0.554c0.184-0.185,0.306-0.892,0.245-1.015C171.27,149.665,170.78,149.48,170.78,149.48
		L170.78,149.48z M166.208,149.02c0,0-1.074,0.861-0.46,1.229c0.613,0.369,1.38,0.369,1.38,0.092s0.154-0.83,0-0.983
		c-0.153-0.154-0.429-0.246-0.429-0.246L166.208,149.02L166.208,149.02z M161.758,149.173c0,0-0.521,0.369-0.215,0.738
		s1.197,0.399,0.951-0.062c-0.245-0.461-0.399-0.953-0.399-0.953L161.758,149.173L161.758,149.173z M158.537,149.48
		c0,0-0.46,1.199-0.153,1.23s1.473,0.184,1.441-0.062c-0.03-0.246-0.398-0.646-0.46-0.892c-0.062-0.246-0.092-0.461-0.337-0.461
		C158.782,149.296,158.537,149.48,158.537,149.48L158.537,149.48z M157.094,150.28c0,0-0.768-0.185-0.675,0.522
		c0.092,0.707,0.736,0.677,0.798,0.431S157.094,150.28,157.094,150.28L157.094,150.28z M157.126,144.968
		c-0.018,0.091-0.219,0.567-0.072,0.786c0.146,0.22,0.401,0.457,0.565,0.128c0.164-0.329,0.072-1.005-0.055-1.06
		C157.437,144.767,157.126,144.968,157.126,144.968L157.126,144.968z M160.101,143.916c0,0-0.675,0.307-0.46,1.199
		c0.215,0.892,0.491,1.229,0.767,0.738c0.276-0.492,0.399-1.198,0.276-1.353C160.562,144.346,160.101,143.916,160.101,143.916
		L160.101,143.916z M162.218,143.731c0,0-0.645,1.414-0.368,1.537s1.014,0.277,1.074,0s0.153-1.322,0.061-1.445
		C162.893,143.701,162.218,143.731,162.218,143.731L162.218,143.731z M165.501,143.332c0,0-1.381,0.553-0.736,1.384
		c0.645,0.83,0.921,1.045,1.013,0.676c0.092-0.369,0.338-1.23,0.246-1.445C165.931,143.731,165.501,143.332,165.501,143.332
		L165.501,143.332z M170.503,144.315c0,0,0.368-0.737-0.154-0.892c-0.521-0.154-0.675,0.154-0.858,0.369
		c-0.185,0.215-0.891-0.185-0.891-0.185s-0.552-0.338-0.675-0.031c-0.122,0.308-0.03,0.769-0.03,1.292s0.613,0.246,1.135,0
		c0.521-0.246,1.228-0.215,1.381-0.215C170.565,144.654,170.503,144.315,170.503,144.315L170.503,144.315z M172.129,143.608
		c0,0-0.675,0.707-0.276,1.138c0.399,0.43,0.521,0.738,0.89,0.399c0.368-0.338,0.583-0.491,0.46-0.83
		c-0.122-0.338-0.306-0.369-0.46-0.492C172.589,143.701,172.129,143.608,172.129,143.608L172.129,143.608z M156.327,137.644
		c0,0-0.337,0.031-0.337,1.383c0,1.353,0.062,1.353,0.399,0.953c0.337-0.399,0.46-0.891,0.46-1.291S156.327,137.644,156.327,137.644
		L156.327,137.644z M161.587,136.266c0,0-0.959-0.384-1.295,0.313c-0.336,0.697-0.528,0.938-0.433,1.298
		c0.097,0.361-0.479,0.504,0.097,0.817c0.575,0.313,1.055,0.769,1.343,0.264c0.288-0.504,0.504-0.673,0.432-1.009
		c-0.071-0.336-0.216-0.408-0.024-0.721c0.192-0.313,0.433-0.312,0.217-0.48C161.707,136.578,161.587,136.266,161.587,136.266
		L161.587,136.266z M168.327,136.41c-0.216,0-0.959,0.12-1.198,0.289c-0.24,0.168-0.505-0.192-0.648-0.168s-0.359,0.409-0.432,1.034
		c-0.071,0.625-0.239,1.346,0.384,1.25c0.624-0.096,0.479-0.313,0.768-0.385c0.288-0.072,0.408,0.577,0.744-0.072
		c0.336-0.649,0.383-0.601,0.383-0.961s0.049-0.12,0.024-0.553C168.375,137.275,168.327,136.41,168.327,136.41L168.327,136.41z
		 M169.958,135.881c0,0-0.672,0.145-0.408,1.178s-0.024,1.178,0.384,1.105s0.528-0.361,0.528-0.697c0-0.337,0.335-0.673,0.096-1.034
		C170.318,136.074,169.958,135.881,169.958,135.881L169.958,135.881z M172.836,135.954c0,0-1.008,0.385-0.863,1.25
		c0.144,0.865,0.384,1.201,0.792,0.841c0.407-0.361,0.455-0.697,0.431-1.322C173.172,136.098,172.836,135.954,172.836,135.954
		L172.836,135.954z M172.286,129.622c0,0-0.689,0.217-0.689,0.69c0,0.474,0.06,0.848,0.473,0.967
		c0.414,0.118,0.926-0.434,0.926-0.69s-0.099-0.651-0.236-0.73S172.286,129.622,172.286,129.622L172.286,129.622z M169.962,129.345
		c0,0-1.417,0.276-1.397,0.79c0.02,0.513,0.197,0.552,0.197,0.71s-0.67,0.315-0.256,0.849c0.413,0.532,0.826,0.729,1.063,0.512
		c0.236-0.217,0.61-0.809,0.61-0.809s0.452,0.217,0.452-0.315c0-0.533,0.099-1.026-0.02-1.263
		C170.495,129.583,169.962,129.345,169.962,129.345L169.962,129.345z M165.356,129.858c0,0-0.945,0.138-0.807,1.164
		c0.137,1.025,0.354,1.322,0.905,1.282c0.551-0.04,1.181-0.612,1.063-1.342c-0.119-0.73,0.02-0.848-0.178-1.045
		c-0.197-0.197-0.67-0.217-0.67-0.217L165.356,129.858L165.356,129.858z M162.343,130.056c0,0-0.649,0.789-0.059,1.026
		c0.59,0.237,0.649,0,0.649-0.296s0-0.75-0.138-0.769C162.659,129.997,162.343,130.056,162.343,130.056L162.343,130.056z
		 M159.411,129.858c0,0-1.379,0.572-1.044,1.657s0.473,1.065,0.866,0.888c0.394-0.178,0.808-0.375,0.827-0.77s0.079-1.124,0-1.341
		S159.411,129.858,159.411,129.858L159.411,129.858z M156.553,130.869c0,0-0.746,0.528-0.431,1.061
		c0.314,0.533,0.688,0.947,0.866,0.415c0.177-0.533,0.197-0.829,0.04-1.026C156.871,131.121,156.553,130.869,156.553,130.869
		L156.553,130.869z M134.31,148.018c0,0-0.755-0.047-0.708,0.943c0.047,0.991,0.943,1.085,1.132,0.802s0.333-1.378,0.156-1.688
		C134.713,147.764,134.31,148.018,134.31,148.018L134.31,148.018z M137.47,148.395c0,0-1.415-0.283-0.943,0.991
		s1.226,1.084,1.226,0.613S137.47,148.395,137.47,148.395L137.47,148.395z M140.536,149.904c0,0-0.802-0.236-0.802,0.142
		s-0.047,0.755,0.377,0.66C140.536,150.612,140.536,149.904,140.536,149.904L140.536,149.904z M149.167,150.093
		c0,0-0.66,0.849-0.33,1.415s0.708,0.755,0.896,0.283c0.189-0.472,0.519-0.943,0.236-1.226
		C149.686,150.282,149.167,150.093,149.167,150.093L149.167,150.093z M147.233,149.857c0,0-0.519,0.849-0.33,1.179
		c0.188,0.33,0.943,0.188,0.943-0.047c0-0.236,0.613-0.377,0-0.755C147.233,149.857,147.233,149.857,147.233,149.857
		L147.233,149.857z M143.271,149.008c0,0-1.509,0.519-0.472,1.32c1.038,0.802,1.085,0.424,1.085-0.047c0-0.472,0-1.038,0-1.038
		L143.271,149.008L143.271,149.008z M149.921,145.376c0,0-0.661,0.896-0.33,1.226c0.33,0.331,0.754,0.142,0.754-0.235
		C150.346,145.99,149.921,145.376,149.921,145.376L149.921,145.376z M146.479,143.82c0,0-0.849,1.084-0.095,1.792
		c0.755,0.708,1.745,0.613,1.745,0.094c0-0.519,0.047-1.32-0.141-1.462c-0.189-0.142-0.708-0.33-0.708-0.33L146.479,143.82
		L146.479,143.82z M139.404,143.631c0,0-0.896,0.519-0.377,0.802c0.519,0.283,0.849,0.188,0.849,0.188s0.802,0.424,1.132,0
		c0.33-0.425,0.849-0.566,0.472-1.179c-0.377-0.613-0.896-0.188-0.896,0s-0.345,0.524-0.345,0.524L139.404,143.631L139.404,143.631z
		 M136.244,142.547c0,0-1.132,0-1.132,0.283c0,0.283-0.472-0.613-0.802-0.236c-0.33,0.377-0.802,1.698-0.142,1.698
		c0.661,0,1.226-0.519,1.226-0.519s-0.235,1.462,0.519,0.943c0.755-0.519,0.99-0.566,0.943-1.132
		C136.81,143.019,136.244,142.547,136.244,142.547L136.244,142.547z M134.688,135.425c0,0-0.708-0.283-1.321,0.095
		c-0.613,0.377-0.094,0.66-0.047,1.415c0.047,0.755,1.226,1.038,1.226,1.038s0.424,0,0.708-0.66
		c0.283-0.661-0.331-0.613-0.613-0.802C134.357,136.321,134.688,135.425,134.688,135.425L134.688,135.425z M137.47,136.746
		c0,0-1.273,0.613-0.424,0.943C137.895,138.019,137.47,136.746,137.47,136.746L137.47,136.746z M139.545,136.651
		c0,0-0.755,1.038-0.189,1.368s0.613,0.472,0.613-0.188S139.545,136.651,139.545,136.651L139.545,136.651z M145.818,139.764
		c0,0,0.236-1.273,0.236-1.698c0-0.425-0.283-0.708-0.519-0.566c-0.235,0.141-0.471,0.99-0.471,1.745
		C145.063,140,145.205,140,145.818,139.764L145.818,139.764z M147.327,138.208c0,0-0.566,0.991,0.047,1.085s0.943-0.188,0.849-0.755
		C148.129,137.972,147.327,138.208,147.327,138.208L147.327,138.208z M150.11,137.925c0,0-1.085,0.188-0.613,1.273
		s0.896,1.038,0.991,0.283C150.582,138.727,150.11,137.925,150.11,137.925L150.11,137.925z M150.534,131.888c0,0-0.66,0.331,0,0.943
		c0.66,0.613,0.943,0.236,0.896-0.188c-0.047-0.424-0.425-1.038-0.425-1.038L150.534,131.888L150.534,131.888z M146.101,131.369
		c0,0-0.519,1.084-0.236,1.557c0.283,0.471,0.99,0.613,0.99-0.142c0-0.755,0.425-1.368,0.142-1.462S146.101,131.369,146.101,131.369
		L146.101,131.369z M144.073,131.369c0,0.188-0.754,1.132-0.141,1.509c0.613,0.377,0.943,0.141,0.943-0.377
		c0-0.519-0.236-1.273-0.236-1.273L144.073,131.369L144.073,131.369z M141.432,131.18c0,0.189-0.472,1.934,0.236,1.887
		s1.179-1.745,0.896-1.887C142.281,131.039,141.432,131.18,141.432,131.18L141.432,131.18z M139.168,130.567
		c0,0-0.424,0.66-0.33,1.273c0.094,0.613,1.368,1.085,1.32,0.141C140.111,131.039,139.168,130.567,139.168,130.567L139.168,130.567z
		 M137.423,130.237c0,0-0.377,0.802,0.094,0.896s0.66-0.142,0.613-0.424C138.083,130.426,137.423,130.237,137.423,130.237
		L137.423,130.237z M135.206,129.341c0,0-0.802,1.179-0.142,1.745c0.661,0.566,1.227,1.085,1.368,0.377
		c0.142-0.708-0.471-2.311-0.754-2.5C135.395,128.775,135.206,129.341,135.206,129.341L135.206,129.341z M179.08,152.231
		c0,0-0.387,2.473-0.618,2.938c-0.231,0.463-0.231,1.545,0.386,1.622c0.619,0.077,0.773-1.159,0.773-2.009
		C179.621,153.932,179.08,152.231,179.08,152.231L179.08,152.231z M165.685,156.858c-0.248,0-2.973-1.365-3.53-0.745
		c-0.558,0.621,0.186,0.807,0.434,0.807S165.685,156.858,165.685,156.858L165.685,156.858z M178.962,124.078
		c0,0-0.347,8.137-0.347,9.605s0.154,3.787,0.154,3.787l-0.154,1.159c0,0,0.231,1.237,0.31,1.623
		c0.077,0.387,0.077,1.005-0.078,1.391c-0.154,0.387-0.077,1.391,0.078,1.932c0.154,0.541,0.464,0.927,0,1.546
		c-0.464,0.618-0.464,1.545-0.232,1.854c0.232,0.309,0.232,0.85,0.232,1.545c0,0.696,0.309,1.082,0.309,1.623
		s0.618,0.078,0.618-0.85c0-0.928,0.535-3.102-0.077-4.019c-0.612-0.917,0-1.468,0-2.164c0-0.696,0-2.396,0-3.246
		s0.471-0.915,0-1.778c-0.47-0.862,0-1.545,0-2.396s-0.154-4.637-0.154-5.178s0-3.401,0-3.401L178.962,124.078L178.962,124.078z
		 M152.071,128.715l-0.643-1.309c0,0-1.287-0.91-1.893-0.91c-0.605,0-2.668-1.932-4.465-2.351c-1.797-0.419-1.237,0.153-2.876,0.075
		s-6.207-0.53-6.963-0.53s-3.103-1.517-3.784-1.669c-0.681-0.152-2.195,0-2.195,0s-0.076,8.115,0.378,9.176
		s0.076,9.935,0.076,10.997s-0.151,10.465,0.151,10.996c0.303,0.53,2.271,2.958,2.876,3.261c0.605,0.304,1.741,0,2.27,0.151
		c0.53,0.152,1.06-0.075,1.893-0.075s0.681,0.379,1.892,0.379c1.211,0,1.287-0.076,2.271-0.379c0.984-0.304,0.984,0.228,1.589,0.228
		s0.681-0.152,1.665-0.455c0.984-0.304,0.984,0.455,1.589,0.53c0.605,0.076,1.741,0,2.649,0.228s2.195,1.365,3.179,1.063
		c0.984-0.304,0.151-1.214,0.151-1.972c0-0.759,0.586-4.569,0.586-5.48c0-0.91-0.284-3.924-0.284-3.924L152.071,128.715
		L152.071,128.715z M175.556,121.729l-1.63,0.331c0,0-4.541,1.763-5.449,1.82c-2.769,0.173-6.173-0.56-8.742,0.341
		c-1.135,0.398-6.263,3.413-6.263,3.413s-0.095,15.471-0.095,16.21c0,0.739-0.17,3.526,0.17,3.754
		c0.341,0.227-0.057,8.076-0.057,8.645c0,0.569,0.283,1.422,1.135,1.536c0.852,0.113,1.987-0.967,3.52-2.218
		c1.533-1.252,5.221-1.397,5.887-1.397s4.369,0.779,5.108,1.038c0.741,0.261,4.554-0.259,4.554-0.259s1.556,0.037,1.852-0.148
		s0.925-1.373,0.925-1.966c0-0.594,0.025-5.849,0.025-7.493c0-1.644,0.235-20.435,0-21.492
		C176.261,122.786,175.556,121.729,175.556,121.729z"/>
	<path fill-rule="evenodd" clip-rule="evenodd" fill="#373435" d="M256.299,233.848l1.225-0.702l1.252-0.721l1.27-0.737l1.282-0.75
		l1.285-0.757l1.28-0.763l1.272-0.762l1.252-0.759l1.226-0.75l1.191-0.741l1.148-0.724l1.098-0.704l1.041-0.68l0.972-0.653
		l0.897-0.619l0.812-0.578l0.713-0.533l0.629-0.494l1.167-0.95l1.045-0.854l0.912-0.745l0.788-0.645l0.673-0.552l0.567-0.469
		l0.471-0.387l0.38-0.314l0.3-0.251l0.231-0.193l0.17-0.144l0.107-0.09l0.066-0.059l0.025-0.021l0.018-0.017l11.922-10.365
		l-7.264,14.037l-0.064,0.13l-0.113,0.22l-0.15,0.298l-0.188,0.371l-0.221,0.436l-0.25,0.496l-0.578,1.149l-0.32,0.64l-0.337,0.676
		l-0.351,0.705l-0.359,0.728l-0.368,0.747l-0.371,0.756l-0.372,0.763l-0.369,0.761l-0.362,0.753l-0.354,0.74l-0.341,0.718
		l-0.04,0.088l24.118-3.588l-10.161,7.837l-1.01,0.769l-1.016,0.767l-1.022,0.762l-1.025,0.758l-1.031,0.751l-1.039,0.75
		l-1.042,0.743l-1.048,0.737l-1.051,0.732l-1.057,0.727l-1.06,0.723l-1.063,0.714l-1.066,0.709l-1.071,0.704l-1.071,0.695
		l-1.077,0.688l-1.077,0.685l-1.081,0.675l-1.082,0.67l-1.083,0.66l-1.086,0.653l-1.085,0.646l-1.087,0.638l-1.09,0.629
		l-1.089,0.622l-1.089,0.613l-1.089,0.604l-1.089,0.596l-1.087,0.583l-1.088,0.578l-2.471,1.289v10.41l-6.611,4.518l-5.532,3.447
		l-5.703,3.234l-5.866,3.02l-6.014,2.803l-6.156,2.583l-6.287,2.362l-6.404,2.138l-6.519,1.911l-6.616,1.685l-6.707,1.452
		l-6.787,1.221l-6.856,0.984l-6.918,0.748l-6.967,0.507l-7.008,0.265L151.759,300l-7.059-0.227l-7.068-0.479l-7.069-0.731
		l-7.058-0.983l-7.039-1.244l-7.008-1.503l-6.969-1.767l-6.917-2.031l-6.857-2.3l-6.787-2.57l-6.706-2.845L68.61,280.2l-6.513-3.397
		l-6.4-3.68l-7.628-4.815v-13.334l-1.961-0.652l-1.35-0.679l-1.17-0.598l-1.173-0.609l-1.173-0.62l-1.173-0.632l-1.176-0.642
		l-1.174-0.653l-1.177-0.661l-1.175-0.674l-1.175-0.684l-1.173-0.692l-1.172-0.703l-1.171-0.709l-1.169-0.72l-1.166-0.728
		l-1.165-0.737l-1.163-0.744l-1.159-0.752l-1.153-0.763l-1.151-0.766l-1.147-0.774L20.259,239l-1.138-0.787l-1.134-0.796
		l-1.13-0.802l-1.121-0.806l-1.118-0.813l-1.11-0.818l-1.104-0.823l-1.097-0.829l-1.09-0.833L0,223.794l24.049,3.589l-0.043-0.09
		l-0.339-0.72l-0.352-0.738l-0.361-0.753l-0.368-0.762l-0.371-0.763l-0.37-0.757l-0.367-0.744l-0.36-0.729l-0.349-0.705
		l-0.335-0.676l-0.319-0.64l-0.3-0.598l-0.276-0.551l-0.25-0.496l-0.219-0.437l-0.187-0.37l-0.151-0.298l-0.112-0.221l-0.063-0.127
		l-7.263-14.038l11.92,10.366l0.025,0.022l0.024,0.021l0.063,0.056l0.111,0.093l0.167,0.142l0.229,0.192l0.302,0.252l0.378,0.313
		l0.469,0.388l0.566,0.466l0.669,0.555l0.786,0.645l0.91,0.746l1.042,0.853l1.165,0.951l0.624,0.495l0.712,0.532l0.81,0.578
		l0.893,0.618l0.97,0.651l1.037,0.682l1.096,0.705l1.143,0.725l1.189,0.739l1.22,0.752l1.248,0.756l1.268,0.764l1.277,0.761
		l1.282,0.759l1.276,0.748l1.267,0.738l1.247,0.722l1.222,0.702l1.186,0.679l1.145,0.652l1.096,0.621l1.04,0.587l0.977,0.548
		l0.904,0.507l0.826,0.463l0.739,0.41l0.646,0.358l0.544,0.301l0.437,0.242l0.32,0.175l0.203,0.112l1.57,0.87l0.281,9.069
		l-0.564,0.892l2.686,1.711l5.71,3.31l5.814,3.063l5.909,2.812l5.997,2.567l6.08,2.319l6.152,2.076l6.218,1.831l6.277,1.594
		l6.328,1.352l6.371,1.114l6.407,0.877l6.435,0.643l6.455,0.408l6.467,0.178h0.008l-0.136-0.34l-1.225-1.34l-1.352-1.375
		l-1.347-1.271l-1.343-1.174l-1.34-1.082l-1.338-0.993l-1.337-0.912l-1.342-0.837l-1.342-0.767l-1.348-0.701l-1.355-0.64
		l-1.366-0.586l-1.377-0.531l-1.39-0.487l-1.403-0.442l-1.421-0.406l-1.438-0.372l-1.456-0.34l-1.475-0.316l-1.496-0.295
		l-1.517-0.277l-1.54-0.263l-1.56-0.257l-1.584-0.252l-1.609-0.253l-1.632-0.259l-1.654-0.268l-1.68-0.284l-1.707-0.302l-1.73-0.325
		l-1.756-0.357l-1.789-0.392l-3.376-0.82l-3.256-0.891l-3.127-0.958l-3.004-1.027l-2.878-1.094l-2.756-1.163l-2.635-1.23
		l-2.515-1.299l-2.395-1.364l-2.276-1.432l-2.16-1.5l-2.043-1.563l-1.925-1.631l-1.81-1.694l-1.694-1.759l-1.579-1.819l-1.464-1.882
		l-1.349-1.939l-1.235-1.997l-1.123-2.052l-1.01-2.105l-0.9-2.153l-0.792-2.205l-0.685-2.253l-0.577-2.295l-0.476-2.338
		l-0.375-2.382l-0.275-2.422l-0.179-2.463l-0.084-2.498l0.007-2.537l0.094-2.483l0.065-6.025l0.19-18.197l0.064-6.065l0.191-18.199
		l0.064-6.065l0.127-12.132l0.063-6.065l0.168-15.927l0.024-2.271l0.031-3.033l0.032-3.034l0.065-6.066L54.54,81.84l0.064-6.066
		l0.191-18.198l0.064-6.066l0.064-6.065l0.128-12.132l0.064-6.067L55.4,0h193.979v198.281l-0.014,2.39l-0.058,2.385l-0.104,2.36
		l-0.152,2.339l-0.207,2.312l-0.262,2.285l-0.324,2.254l-0.386,2.225l-0.455,2.19l-0.527,2.156l-0.603,2.118l-0.682,2.081
		l-0.765,2.037l-0.852,1.994l-0.945,1.945l-1.037,1.896l-1.137,1.842l-1.237,1.782l-1.342,1.724l-1.449,1.659l-1.557,1.592
		l-1.667,1.52l-1.779,1.444l-1.895,1.366l-2.009,1.287l-2.127,1.205l-2.243,1.12l-2.363,1.036l-2.485,0.947l-2.611,0.861
		l-2.736,0.769l-3.05,0.724l-2.293,0.157l-2.047,0.145l-2.044,0.146l-2.041,0.158l-2.034,0.164l-2.024,0.182l-2.015,0.194
		l-2.001,0.215l-1.985,0.235l-1.969,0.26l-1.948,0.285l-1.926,0.314l-1.9,0.346l-1.877,0.381l-1.846,0.415l-1.815,0.456
		l-1.781,0.496l-1.746,0.54l-1.708,0.583l-1.668,0.633l-1.629,0.683l-1.584,0.734l-1.541,0.789l-1.493,0.845l-1.446,0.903
		l-1.397,0.965l-1.349,1.029l-1.299,1.097l-1.247,1.166l-1.194,1.239l-1.145,1.315l-1.137,1.461l-0.057,0.301l1.892-0.017
		l6.469-0.283l6.457-0.511l6.44-0.738l6.414-0.961l6.379-1.186l6.338-1.405l6.289-1.626l6.23-1.844l6.166-2.061l6.096-2.275
		l6.013-2.488l5.926-2.702l5.829-2.909l5.727-3.119l0.579-0.342l0.254-8.119l1.572-0.869l0.204-0.113l0.321-0.177l0.438-0.24
		l0.545-0.3l0.649-0.359l0.742-0.411l0.828-0.462l0.907-0.506l0.979-0.549l1.042-0.587l1.102-0.621l1.147-0.653L256.299,233.848
		L256.299,233.848z M235.211,103.865v-0.002c-7.509-50.433-44.793-82.572-81.247-93.722c-1.575,30.21-1.941,61.83-1.619,94.253
		c0.553,0.134,1.148,0.273,1.362,0.309c0.435,0.073,1.303,0,3.043,0c1.738,0,2.247,0.146,4.323-0.323
		c2.077-0.468,6.837-3.817,7.634-4.833c0.348-0.443,3.001-0.001,5.062-0.654c2.652-0.838,4.8-2.739,4.8-2.739l9.455,2.175
		c0,0,3.447-0.528,5.643,0.131c2.194,0.657,3.402,1.975,5.815,2.085c2.414,0.11,10.434-0.213,10.434-0.213l8.99,0.55
		c0,0,3.401,1.638,4.719,1.638c1.316,0,4.169-0.33,4.718-0.44c0.55-0.109,4.499,2.635,5.487,2.305
		C234.221,104.255,234.736,104.058,235.211,103.865L235.211,103.865z M149.385,104.207c0.024-17.106,0.113-35.847,0.136-52.958
		c0.023-16.091,0.84-30.912-0.081-41.263c-48.716,15.313-76.126,60.278-79.681,93.47v0.001c1.658,0.19,4.963,0.55,6.179,0.55
		c1.651,0,9.421,0.194,11.071,0.097c1.109-0.065,3.008,0.221,4.811,0.415c1.751,0.045,3.505,0.086,5.261,0.125
		c0.354-0.068,0.683-0.201,1.1-0.444c1.165-0.68,8.888-2.437,8.888-2.437s3.537,0.512,4.822,0.694
		c1.286,0.184,5.642,1.074,7.273,0.802c1.63-0.272,1.319-1.843,1.319-1.843l2.935,3.167l3.144-0.839h5.607l2.55-0.14
		c0,0,1.537,0.664,1.957,0.874c0.418,0.212,3.668-0.052,4.243-0.052c0.576,0,3.878,0,4.821-0.051
		C146.279,104.345,148.008,104.268,149.385,104.207L149.385,104.207z M172.389,108.376h-62.95
		c-0.474,21.338-0.729,42.675,0.02,64.013h84.274c0.748-21.259,0.497-42.516,0.025-63.774L172.389,108.376L172.389,108.376z
		 M197.708,108.658c-0.624,20.971-1.05,42.026,0.037,63.73h48.622v-63.187L197.708,108.658L197.708,108.658z M246.367,104.972V3.013
		c-62.662,0-125.324,0-187.986,0l-1.055,100.215c3.134,0.159,6.276,0.309,9.429,0.445l-0.026-0.257l0.462-3.59l0.573-3.368
		l0.719-3.417l0.862-3.461l1.009-3.494l1.152-3.525l1.296-3.542l1.438-3.557l1.58-3.561l1.724-3.558l1.863-3.549l2.005-3.532
		l2.146-3.507l2.285-3.474l2.426-3.433l0.544-0.717l-7.379-10.045l-8.924-1.593l-3.931-1.382c0,0-3.399-16.042-4.143-18.272
		c-0.744-2.23-3.506-11.473-3.506-11.473l23.69,15.403l1.169,13.386l6.8,8.286l0.258,0.547l0.691-0.851l2.844-3.262l2.982-3.19
		l3.121-3.108l3.257-3.023l3.395-2.925l3.534-2.818l3.669-2.708l3.807-2.586l3.941-2.456l4.076-2.32l4.211-2.173l4.345-2.02
		l4.479-1.855l4.609-1.687l5.562-1.769l4.433,1.319l3.594,1.199l3.589,1.331l3.579,1.46l3.564,1.593l3.54,1.719l3.512,1.851
		l3.48,1.977l3.438,2.105l3.395,2.234l3.342,2.358l3.285,2.487l3.221,2.614l3.15,2.739l3.074,2.864l2.992,2.989l2.538,2.72
		l0.569-0.705c7.541-9.085,14.913-18.427,21.68-28.677c0,0,0.14-0.137,0.379-0.339c1.032-0.879,3.914-3,5.255-0.632
		c1.65,2.915,0.971,4.564,0.292,5.828c-0.681,1.263-3.082,4.622-3.082,4.622s4.769,2.729,5.031,5.828
		c0.261,3.098,0.785,10.816,2.148,11.919c1.362,1.103,2.608,1.249,2.744,2.2s-0.204,2.243-0.204,2.243s-2.243,3.126-6.93,5.368
		c-4.688,2.242-7.882,2.718-10.87,0.407c-2.991-2.311-7.135-6.861-7.135-6.861l-4.49,5.175l0.498,0.617l2.603,3.484l2.489,3.606
		l2.368,3.728l2.244,3.849l2.112,3.969l1.974,4.09l1.828,4.208l1.679,4.326l1.521,4.443l1.357,4.56l1.19,4.674l1.011,4.789
		l0.885,5.208l4.775,1.24l3.313,0.009v0.007L246.367,104.972L246.367,104.972z M67.091,18.094l3.824,16.572l10.837,2.339
		l-0.106-12.111c0,0-11.078-8.255-11.6-8.603c-0.522-0.35-1.094-0.125-0.895,0.223c0.2,0.35,8.657,12.217,9.256,13.094
		c0.598,0.876,1.288,1.706,0.921,2.398c-0.369,0.692-1.289-0.23-1.749-0.876c-0.461-0.646-7.365-10.191-8.192-11.297
		c-0.83-1.108-1.579-1.924-1.975-2.123C67.013,17.511,67.091,18.094,67.091,18.094L67.091,18.094z M90.266,216.434
		c0,0,10.806,2.004,13.354,7.164c2.55,5.159,2.671,9.773,3.157,10.442c0.485,0.667,1.64,2.063,1.577,3.034
		c-0.059,0.971,0.486,1.762,1.641,2.367c1.152,0.607,2.671,1.7,2.73,2.793c0.063,1.093-1.092,1.577-1.516,1.577
		c-0.426,0-4.128-1.335-5.951-1.699c-1.82-0.364-5.038,0-6.009,1.335c-0.972,1.336-6.192,2.732-9.287,1.64
		c-3.097-1.091-4.675-2.61-4.979-4.675c-0.303-2.063,0.243-3.581-0.607-3.643c-0.85-0.061-2.428-0.12-3.884-1.882
		c-1.457-1.76-1.154-2.609-1.762-2.791c-0.606-0.183-3.381,3.751-6.116,2.176s-2.073-2.403-2.073-2.403s-1.742-0.996-1.077-1.741
		c0.57-0.642,15.879-20.702,20.144-26.293l-1.653-2.075l-1.909-2.544l-1.8-2.561l-1.688-2.568l-1.573-2.574l-1.458-2.576
		l-1.336-2.571l-1.212-2.565l-1.086-2.553l-0.957-2.539l-0.901-2.761l-0.037-0.364l-17.432-0.023l-0.228,21.567
		c-1.458,26.588,11.583,46.046,47.516,54.239c18.592,4.241,33.716,2.191,48.96,19.441c12.333-16.713,35.239-18.166,57.052-19.668
		c30.037-6.496,36.561-27.632,36.499-52.867v-22.479l-15.868-0.019l-0.078,0.737l-1.412,2.927l-1.246,2.487l-1.302,2.49
		l-1.358,2.491l-1.417,2.49l-1.479,2.486l-1.545,2.477l-1.611,2.469l-1.68,2.454l-1.753,2.436l-1.827,2.418l-1.905,2.396
		l-1.986,2.367l-0.131,0.147l17.282,24.541c0.813,1.152,0.533,2.758-0.619,3.568l0,0c-1.151,0.812-2.756,0.532-3.566-0.619
		l-16.616-23.596l-0.567,0.608l-2.24,2.274l-2.329,2.235l-2.42,2.195l-2.517,2.149l-2.612,2.104l-2.71,2.053l-2.815,2l-2.915,1.942
		l-3.022,1.885l-3.132,1.821l-3.239,1.757l-3.354,1.687l-3.468,1.617l-3.585,1.541l-3.704,1.466l-3.825,1.385l-4.799,1.587
		l-4.486-1.316l-3.586-1.186l-3.531-1.299l-3.477-1.406l-3.418-1.511l-3.355-1.608l-3.292-1.702l-3.225-1.791l-3.155-1.873
		l-3.084-1.954l-3.008-2.026l-2.932-2.097l-2.852-2.16l-2.768-2.219l-2.685-2.276l-2.597-2.324l-2.506-2.369l-2.413-2.412
		l-1.749-1.846c-1.739,1.821-4.521,4.775-4.656,5.157C90.026,215.589,90.266,216.434,90.266,216.434L90.266,216.434z M56.6,172.389
		h48.848c1.094-21.802,0.656-42.948,0.028-64.013H65.394h-8.122L56.6,172.389L56.6,172.389z M77.079,175.586
		c2.531,8.25,7.465,17.095,14.28,25.631c0.193-0.27,0.405-0.499,0.606-0.565c0.582-0.195,1.749,0,1.749,0l2.428,0.194
		c0,0,1.943-2.623,2.429-3.207c0.485-0.581,1.942-0.096,1.942-0.096s1.069,1.749,3.788,2.137c2.721,0.389,6.12,0,7.771-2.525
		c1.652-2.525,2.207-4.348,2.242-4.729c0.035-0.379,0.552-0.897,0.76-0.897c0.207,0,1.865,0.657,2.073,0.346
		c0.207-0.311,1.865-0.829,1.865-0.829l2.315-0.867l8.979,11.996c0,0,2.58,0.725,3.612-0.104c1.032-0.827,2.581-0.516,2.581-0.516
		l1.135,1.653c0,0,0.285,0.343,0.66,0.828c1.185-1.811,5.386-7.499,11.622-7.939c7.424-0.524,12.052,3.152,14.062,5.339
		c2.009,2.188,3.23,6.213,3.755,6.912c0.524,0.7,0.611,1.051,0.611,2.013c0,0.963,0.873,2.777,0.873,2.777s8.361-4.861,8.772-4.861
		c0.414,0,1.651,1.344,2.168,1.344s2.89,2.896,5.159,0.932c2.271-1.966,4.751-5.275,5.986-5.998c1.24-0.724,2.581-0.828,2.581-0.828
		l4.439,2.172c0,0,2.476,1.033,4.025,1.033c1.547,0,2.477,0.209,2.477,0.209l2.028,0.677c8.918-10.161,15.452-21.214,20.582-32.045
		L77.079,175.586L77.079,175.586z M204.525,210.387c-0.895-0.078-4.799-0.438-5.841-0.9c-1.179-0.525-4.977-1.966-4.977-1.966
		l-1.572,0.656l-7.072,6.81c0,0-5.371-2.487-7.074-2.619c-1.703-0.131-2.751,0.655-3.405,1.311
		c-0.655,0.655-6.157,3.535-8.645,3.667c-2.489,0.131-6.812-0.786-7.597-1.311c-0.787-0.522-1.966-1.701-1.966-1.701l-2.226,0.262
		l-2.752,1.833c0,0-4.06-0.916-5.631-0.916c-1.573,0-3.537-1.179-5.109-2.752c-1.571-1.57-3.406-5.239-3.406-5.239l-1.963-2.356
		c0,0-3.439,0.724-4.98,0.238c-1.538-0.487-2.35-2.269-2.753-2.674c-0.406-0.405-4.619-5.51-4.619-5.51l-2.187-3.321
		c0,0-2.999-0.243-4.376,1.701c-1.376,1.944-2.674,5.672-5.832,6.806c-3.16,1.135-6.402,0.648-7.86,0.162
		c-1.458-0.487-3.321-0.891-3.321-0.891l-2.188,2.024l-2.1-0.038l-0.822,1.026c14.092,16.24,34.894,30.871,58.69,37.405
		C175.843,234.896,192.302,223.49,204.525,210.387L204.525,210.387z M140.227,207.188c0.994,1.748,4.93,6.587,8.451,5.844
		c3.92-0.827,4.747-0.621,4.747-0.621s0.721-0.723,1.239-0.723c0.515,0,3.198-0.208,3.198-0.208s1.137,2.586,2.891,2.586
		c1.416,0,1.891,0.673,2.728,0.824l-0.115-2.344c0,0-0.523-1.661,0.262-2.537s0.873-1.138,0.263-2.013
		c-0.612-0.874-2.01-5.25-6.288-7.262c-4.281-2.015-8.733-2.015-12.401,0.437C142.592,202.912,140.956,205.713,140.227,207.188
		L140.227,207.188z M252.253,247.293l-0.114,0.072l-0.004,0.001l0.004-0.001L252.253,247.293L252.253,247.293z M252.135,247.366
		l0.004-0.001L252.135,247.366l-0.021,0.011L252.135,247.366L252.135,247.366z M247.588,242.18l-0.14,4.502l3.89-2.367l10.41-6.884
		v15.864c11.396-5.898,23.055-13.457,33.579-21.626l-17.818,2.651c-0.847,0.125,7.559-16.339,7.559-16.339s-0.312,0.311-7.041,5.791
		C271.298,229.253,247.588,242.18,247.588,242.18L247.588,242.18z M51.082,243.908c0,7.579,0,15.16,0,22.738
		c65.146,43.049,152.713,38.188,207.655-1.134c0-7.202,0-15.278,0-22.479c-0.88,0.604-1.765,1.199-2.651,1.79l-0.013,0.007
		l-0.043,0.028l-0.42,0.279l-0.034,0.021l-0.034,0.022c-0.69,0.454-1.385,0.903-2.081,1.347l-0.014,0.011l-0.035,0.022
		c-0.424,0.271-0.849,0.536-1.272,0.804l-0.004,0.001l-0.021,0.011l-0.019,0.015l-0.021,0.011l-0.002,0.003
		c-0.268,0.167-0.535,0.332-0.804,0.498l-0.019,0.013l-0.02,0.013l-0.02,0.012l-0.005,0.002l-0.075,0.047L251.112,248l-0.073,0.047
		l-0.004,0.004l-0.02,0.012l-0.02,0.013C190.731,285.251,109.976,286.783,51.082,243.908L51.082,243.908z M58.573,238.989
		c0,0-23.635-12.928-30.344-18.407c-6.707-5.481-7.018-5.793-7.018-5.793s8.378,16.467,7.537,16.34l-17.764-2.65
		c11.357,8.843,24.042,16.973,36.282,23.053l0.803,0.267v-13.65l10.506,7.303l0.129,0.082l0.068-0.108L58.573,238.989z"/>
	<g>
		<path fill-rule="evenodd" clip-rule="evenodd" fill="#0B7AB6" d="M247.588,242.18c0,0,23.71-12.927,30.439-18.407
			s7.04-5.791,7.04-5.791s-8.404,16.465-7.559,16.339l17.818-2.65c-10.523,8.168-22.184,15.727-33.579,21.625v-15.864l-10.41,6.885
			l-3.891,2.366L247.588,242.18L247.588,242.18z M51.081,243.909c0,7.579,0,15.158,0,22.738
			c65.146,43.048,152.714,38.187,207.655-1.135c0-7.202,0-15.278,0-22.479c-0.878,0.605-1.763,1.2-2.65,1.789l-0.013,0.009
			l-0.042,0.028l-0.421,0.278l-0.034,0.021l-0.035,0.023c-0.689,0.454-1.384,0.901-2.079,1.346l-0.016,0.011l-0.034,0.022
			c-0.423,0.271-0.848,0.537-1.273,0.803l-0.003,0.002l-0.02,0.012l-0.02,0.013l-0.02,0.012l-0.003,0.002
			c-0.268,0.168-0.535,0.333-0.804,0.499l-0.02,0.013l-0.02,0.012l-0.02,0.013l-0.004,0.002l-0.075,0.047l-0.02,0.012l-0.073,0.046
			l-0.005,0.003l-0.02,0.013l-0.02,0.013C190.731,285.251,109.977,286.783,51.081,243.909L51.081,243.909z M58.574,238.988
			l0.2,6.436l-0.069,0.108l-0.128-0.081l-10.508-7.304v13.651l-0.802-0.268c-12.241-6.08-24.925-14.209-36.283-23.053l17.762,2.651
			c0.843,0.125-7.534-16.34-7.534-16.34s0.31,0.311,7.018,5.791S58.574,238.988,58.574,238.988L58.574,238.988z M256.085,244.822
			l-0.013,0.009l-0.042,0.028L256.085,244.822L256.085,244.822z M255.61,245.138l-0.069,0.045l0.035-0.023L255.61,245.138
			L255.61,245.138z M253.461,246.528l-0.016,0.011l-0.034,0.022L253.461,246.528L253.461,246.528z M252.253,247.293l-0.115,0.071
			L252.253,247.293L252.253,247.293z M252.138,247.364l-0.003,0.002l-0.02,0.012l-0.02,0.013l-0.02,0.012l-0.003,0.002
			L252.138,247.364L252.138,247.364z M251.27,247.903l-0.02,0.013l-0.02,0.012l-0.02,0.013l-0.004,0.002l-0.075,0.047l-0.02,0.012
			l-0.073,0.046l-0.005,0.003l-0.02,0.013l-0.02,0.013L251.27,247.903z"/>
	</g>
	<path fill-rule="evenodd" clip-rule="evenodd" fill="#373435" d="M71.441,269.008c-0.633,1.242-1.466,2.097-2.499,2.563
		c-1.033,0.466-2.225,0.354-3.575-0.334c-1.34-0.682-2.127-1.582-2.359-2.699c-0.232-1.116-0.035-2.291,0.594-3.524l3.276-6.429
		l1.233,0.628l-3.187,6.253c-0.488,0.959-0.682,1.847-0.58,2.663c0.102,0.816,0.637,1.471,1.606,1.965
		c0.949,0.483,1.79,0.526,2.522,0.129c0.733-0.397,1.34-1.07,1.824-2.02l3.186-6.253l1.233,0.628L71.441,269.008L71.441,269.008z
		 M76.858,263.655l-4.929,10.57l1.254,0.584l4.166-8.854l-0.343,10.637l0.761,0.355l7.957-7.087l-4.135,8.868l1.254,0.585
		l4.929-10.57l-1.822-0.849l-7.499,6.588l0.272-9.958L76.858,263.655L76.858,263.655z M96.445,274.464
		c-0.166-0.54-0.446-1.013-0.842-1.42c-0.395-0.407-0.866-0.71-1.414-0.909c-1.187-0.432-2.344-0.342-3.473,0.271
		c-1.128,0.611-1.916,1.531-2.363,2.76c-0.469,1.29-0.471,2.514-0.004,3.671c0.467,1.158,1.31,1.958,2.527,2.401
		c1.321,0.48,2.564,0.354,3.731-0.378l0.677,1.176c-0.722,0.474-1.485,0.741-2.292,0.805s-1.658-0.068-2.556-0.396
		c-1.579-0.574-2.705-1.601-3.376-3.078c-0.672-1.478-0.706-3.047-0.101-4.708c0.593-1.631,1.617-2.807,3.072-3.528
		c1.455-0.721,2.987-0.788,4.597-0.202c0.784,0.285,1.462,0.693,2.035,1.223c0.573,0.53,0.976,1.164,1.209,1.904L96.445,274.464
		L96.445,274.464z M106.205,282.361l1.989-6.936l-1.33-0.381l-1.935,6.745c-0.293,1.023-0.762,1.801-1.405,2.33
		c-0.643,0.53-1.477,0.648-2.501,0.354c-1.045-0.3-1.696-0.84-1.951-1.622c-0.256-0.781-0.235-1.69,0.062-2.725l1.934-6.745
		l-1.33-0.382l-1.989,6.936c-0.381,1.33-0.352,2.521,0.089,3.573c0.441,1.052,1.385,1.785,2.831,2.2
		c1.457,0.417,2.647,0.3,3.572-0.355C105.166,284.7,105.821,283.702,106.205,282.361L106.205,282.361z M110.508,275.99l1.343,0.335
		l-2.511,10.069l5.179,1.292l-0.311,1.246l-6.521-1.626L110.508,275.99L110.508,275.99z M124.955,286.3
		c-0.218,1.378-0.746,2.448-1.584,3.21c-0.838,0.763-2.005,1.025-3.502,0.788c-1.486-0.235-2.512-0.849-3.078-1.838
		c-0.565-0.99-0.74-2.169-0.524-3.536l1.129-7.126l1.367,0.216l-1.098,6.932c-0.168,1.063-0.078,1.967,0.271,2.711
		c0.35,0.745,1.061,1.202,2.135,1.373c1.052,0.166,1.865-0.053,2.439-0.656c0.574-0.604,0.944-1.433,1.111-2.484l1.098-6.932
		l1.367,0.217L124.955,286.3L124.955,286.3z M138.15,282.912c-0.182-0.372-0.454-0.669-0.817-0.889
		c-0.363-0.221-0.758-0.354-1.184-0.398c-0.667-0.07-1.262,0.033-1.788,0.31c-0.526,0.275-0.823,0.735-0.891,1.38
		c-0.055,0.524,0.074,0.955,0.386,1.291c0.312,0.337,0.973,0.727,1.98,1.169c1.008,0.442,1.78,0.922,2.317,1.437
		c0.537,0.515,0.752,1.279,0.645,2.296c-0.115,1.092-0.599,1.889-1.452,2.39c-0.853,0.502-1.848,0.692-2.983,0.573
		c-0.743-0.079-1.415-0.279-2.016-0.602c-0.601-0.323-1.063-0.782-1.388-1.38l1.282-0.843c0.196,0.44,0.507,0.796,0.931,1.067
		c0.424,0.271,0.893,0.433,1.407,0.487c0.655,0.068,1.258-0.05,1.81-0.356s0.859-0.771,0.925-1.395
		c0.069-0.654-0.077-1.128-0.438-1.421c-0.361-0.291-1.072-0.678-2.131-1.159s-1.808-0.977-2.246-1.486
		c-0.438-0.511-0.609-1.213-0.515-2.108c0.111-1.06,0.583-1.841,1.414-2.345c0.831-0.503,1.793-0.697,2.885-0.583
		c0.688,0.073,1.283,0.24,1.786,0.503s0.941,0.662,1.315,1.198L138.15,282.912L138.15,282.912z M141.417,280.985l1.382,0.073
		l-0.611,11.646l-1.382-0.072L141.417,280.985L141.417,280.985z M150.793,283.57c-0.213-0.354-0.51-0.626-0.892-0.814
		c-0.381-0.188-0.786-0.285-1.214-0.293c-0.67-0.012-1.255,0.144-1.755,0.464c-0.5,0.321-0.755,0.805-0.767,1.453
		c-0.009,0.526,0.157,0.944,0.498,1.252c0.34,0.309,1.032,0.64,2.075,0.992c1.043,0.354,1.854,0.763,2.434,1.229
		c0.579,0.467,0.86,1.21,0.842,2.231c-0.02,1.098-0.432,1.934-1.238,2.508c-0.807,0.573-1.781,0.85-2.922,0.83
		c-0.747-0.013-1.434-0.154-2.061-0.424c-0.626-0.269-1.127-0.687-1.502-1.253l1.203-0.951c0.234,0.421,0.574,0.748,1.021,0.981
		c0.446,0.233,0.927,0.354,1.443,0.363c0.659,0.012,1.25-0.16,1.772-0.514c0.522-0.353,0.789-0.842,0.8-1.469
		c0.012-0.658-0.175-1.117-0.561-1.377c-0.385-0.26-1.126-0.582-2.224-0.97c-1.097-0.388-1.886-0.815-2.366-1.285
		s-0.713-1.155-0.698-2.056c0.019-1.064,0.42-1.885,1.205-2.458c0.784-0.574,1.726-0.852,2.824-0.832
		c0.692,0.012,1.3,0.127,1.823,0.345c0.523,0.218,0.995,0.577,1.415,1.079L150.793,283.57L150.793,283.57z M154.25,281.553h7.331
		v1.285h-5.947v3.657h5.552v1.284h-5.552v4.151h6.244v1.285h-7.628V281.553L154.25,281.553z M163.203,281.315l1.38-0.096
		l0.352,5.028l0.204-0.006l4.934-5.407l1.988-0.139l-5.38,5.71l6.473,5.905l-2.016,0.135l-5.957-5.522l-0.197,0.014l0.413,5.916
		l-1.38,0.097L163.203,281.315L163.203,281.315z M173.375,280.482l7.304-0.639l0.111,1.28l-5.924,0.518l0.318,3.644l5.53-0.483
		l0.112,1.28l-5.53,0.483l0.361,4.136l6.22-0.545l0.112,1.28l-7.599,0.665L173.375,280.482L173.375,280.482z M181.955,279.502
		l2.025,11.485l6.619-1.167l-0.224-1.265l-5.256,0.926l-1.803-10.22L181.955,279.502L181.955,279.502z M190.333,284.056
		c-0.367-1.729-0.11-3.279,0.771-4.651c0.883-1.372,2.188-2.242,3.917-2.609c1.74-0.37,3.289-0.109,4.646,0.78
		c1.356,0.891,2.221,2.207,2.59,3.947c0.367,1.729,0.11,3.28-0.771,4.651c-0.881,1.372-2.187,2.242-3.917,2.609
		c-1.739,0.37-3.288,0.109-4.645-0.78C191.567,287.112,190.704,285.797,190.333,284.056L190.333,284.056z M200.807,281.83
		c-0.285-1.343-0.945-2.379-1.982-3.106c-1.036-0.729-2.215-0.953-3.536-0.672c-1.311,0.278-2.293,0.964-2.947,2.058
		c-0.655,1.094-0.841,2.307-0.558,3.639c0.285,1.343,0.946,2.378,1.982,3.106s2.215,0.953,3.536,0.672
		c1.311-0.278,2.294-0.965,2.948-2.058C200.905,284.375,201.09,283.162,200.807,281.83L200.807,281.83z M212.289,274.346
		c-0.318-0.267-0.688-0.426-1.108-0.479c-0.422-0.054-0.837-0.015-1.244,0.118c-0.637,0.207-1.14,0.543-1.508,1.01
		c-0.368,0.466-0.452,1.007-0.252,1.623c0.163,0.501,0.455,0.843,0.878,1.022c0.423,0.181,1.185,0.269,2.285,0.263
		s2.001,0.117,2.701,0.369c0.699,0.252,1.207,0.863,1.522,1.835c0.339,1.045,0.221,1.97-0.354,2.774
		c-0.576,0.805-1.407,1.384-2.493,1.736c-0.71,0.23-1.405,0.321-2.086,0.271c-0.681-0.05-1.29-0.282-1.828-0.696l0.827-1.291
		c0.359,0.322,0.788,0.521,1.285,0.596c0.498,0.075,0.992,0.033,1.483-0.126c0.627-0.204,1.13-0.558,1.508-1.063
		c0.38-0.504,0.472-1.053,0.278-1.649c-0.204-0.626-0.529-0.999-0.979-1.119s-1.255-0.184-2.419-0.192
		c-1.163-0.009-2.048-0.157-2.655-0.445c-0.607-0.287-1.05-0.86-1.329-1.717c-0.329-1.013-0.216-1.918,0.339-2.716
		c0.555-0.799,1.354-1.367,2.399-1.706c0.657-0.214,1.27-0.303,1.836-0.268c0.565,0.035,1.128,0.222,1.688,0.56L212.289,274.346
		L212.289,274.346z M214.651,271.382l3.989,10.96l7.167-2.608l-0.439-1.207l-5.866,2.135l-1.421-3.9l5.217-1.898l-0.438-1.208
		l-5.217,1.899l-1.251-3.438l5.588-2.033l-0.439-1.208L214.651,271.382L214.651,271.382z M228.66,267.723
		c-0.348-0.226-0.734-0.34-1.159-0.341c-0.425-0.002-0.832,0.087-1.22,0.269c-0.607,0.283-1.064,0.678-1.374,1.186
		c-0.309,0.508-0.325,1.055-0.052,1.642c0.223,0.479,0.555,0.78,0.995,0.908c0.441,0.128,1.209,0.121,2.301-0.019
		c1.093-0.139,2.001-0.127,2.726,0.038c0.726,0.165,1.304,0.71,1.735,1.636c0.464,0.995,0.459,1.928-0.014,2.796
		c-0.474,0.869-1.228,1.545-2.263,2.028c-0.677,0.315-1.356,0.489-2.038,0.522c-0.681,0.033-1.314-0.123-1.899-0.468l0.665-1.383
		c0.395,0.276,0.844,0.421,1.348,0.435c0.503,0.015,0.988-0.088,1.456-0.306c0.597-0.279,1.054-0.691,1.368-1.238
		s0.34-1.104,0.075-1.671c-0.279-0.598-0.648-0.928-1.107-0.992c-0.461-0.064-1.269-0.029-2.425,0.104
		c-1.155,0.133-2.053,0.094-2.69-0.117c-0.638-0.212-1.146-0.726-1.527-1.542c-0.45-0.965-0.448-1.878,0.005-2.737
		c0.453-0.86,1.178-1.522,2.173-1.986c0.627-0.292,1.224-0.456,1.789-0.488c0.566-0.034,1.148,0.082,1.745,0.349L228.66,267.723
		L228.66,267.723z M230.72,264.539l5.295,10.393l1.232-0.628l-5.295-10.393L230.72,264.539L230.72,264.539z M232.728,263.483
		l9.56,8.037l1.167-0.647l-1.663-12.412l-1.283,0.71l1.385,10.194l-7.796-6.641L232.728,263.483L232.728,263.483z M242.473,258.012
		l6.217-3.885l0.682,1.09l-5.044,3.151l1.938,3.102l4.707-2.942l0.682,1.09l-4.708,2.942l2.199,3.521l5.296-3.309l0.681,1.089
		l-6.469,4.042L242.473,258.012z"/>
	<path fill-rule="evenodd" clip-rule="evenodd" fill="#FEFEFE" d="M130.48,30.246c0,0-2.003-1.54-3.005-1.339
		c-1.001,0.201-1.001,1.338-1.402,0.937c-0.4-0.401-0.267-1.205-0.734-1.271c-0.468-0.066-1.67-1.205-1.67-1.205
		s0.2,0.803-0.133,1.138c-0.334,0.334-0.899,0.541-0.361,0.83c0.538,0.29,0.579,0.455,0.579,0.455s-0.909-0.413-1.199-0.041
		c-0.289,0.372,0.91,0.661,0.744,1.322s-0.496,0.413-0.62,0.248c-0.124-0.166-0.289-0.248-0.702-0.248
		c-0.414,0-0.703,0.909-1.075,1.033s-0.62-0.372-0.62,0.124c0,0.496-1.074,0.372-1.281,0.62c-0.207,0.248-0.248,0.207-0.33,0.578
		c-0.083,0.372-0.496,0.538-0.785,0.662c-0.29,0.124-0.29,0.372-0.29,0.744c0,0.372-0.372,0.413-0.579,0.413
		s-0.331,0.042-0.248,0.827s-0.083,1.364-0.331,1.653c-0.248,0.289-0.248,1.157-0.331,1.487c-0.083,0.331-0.827,0.042-0.289,1.034
		c0.537,0.992,0.083,0.785,0.372,1.653c0.289,0.868,0.785,1.074,1.239,0.579c0.455-0.496,1.075-0.868,1.323-1.281
		c0.248-0.414,1.24-0.785,0.992-1.281c-0.248-0.496-1.405-0.744-1.116-1.364c0.289-0.62,0.827-0.537,0.868-0.95
		c0.042-0.414,0.662-0.662,0.868-0.414c0.207,0.248,1.364,1.736,1.736,1.446c0.372-0.289,1.777-0.454,1.777-0.454
		s0.289-1.405,1.033-1.57c0.744-0.166,0.62,0.124,1.033-0.579c0.413-0.703,0.702-0.372,1.405-0.909
		c0.703-0.538,0.124-0.083,1.033-0.744s1.157-0.166,1.157,0.372c0,0.537,0.413,0.413,1.074,0.496
		c0.662,0.083,0.496,0.372,0.786,0.744c0.289,0.372,0.537,0.372,0.165,0.868c-0.372,0.496-0.992,1.24-0.992,1.24
		s-1.157-0.662-1.736-0.455c-0.579,0.207-1.653,0.248-1.653,0.992c0,0.744,0.455,1.158,1.033,1.075
		c0.579-0.083,0.827-0.124,0.538,0.538c-0.29,0.661-0.826,0.041-0.538,1.033c0.29,0.992,0.496,1.984,0.786,1.075
		c0.289-0.909-0.042-1.405,0.455-1.405c0.496,0-0.207,1.157,0.703,0.91c0.909-0.248,1.364,0.248,1.322-0.372
		c-0.042-0.62-0.62-0.496-0.124-0.909s0.992-0.703,0.579-1.157s-1.323-0.703,0-1.075c1.322-0.372,0.496-1.157,0.951-1.488
		c0.455-0.331-0.62-0.372,0.496-0.826c1.116-0.455,0.909,0.661,1.446,0.868c0.538,0.207,1.034-0.455,0.992-0.827
		c-0.042-0.372,0.083-0.827-0.827-0.868c-0.909-0.042-1.198-0.083-0.703-0.62c0.496-0.537,0.744-0.537,0.496-0.868
		s-0.166,0.166-0.62,0.372c-0.454,0.207-0.744,0.62-0.868,0.207s0.042-1.488-0.042-1.653c-0.083-0.165-0.537,0.414-0.744,0.538
		c-0.207,0.124-0.496-0.166-0.538-0.661c-0.041-0.496,0-1.116,0-1.116l-1.033,0.744c0,0-0.248-0.455,0-1.116
		s0.331-1.033,0.248-1.199C131.108,29.666,130.48,30.246,130.48,30.246L130.48,30.246z M126.044,38.733c0,0,0.213,0.555,0.085,1.024
		c-0.128,0.469-0.426-0.085-0.937-0.597S126.044,38.733,126.044,38.733L126.044,38.733z M112.828,107.006
		c0,0,0.902-1.651,0.225-2.456c-0.856-0.047-2.41-0.107-3.82-0.022c-0.592,0.036-0.979,0.23-1.23,0.49
		c0.058,0.302,0.148,0.652,0.284,0.926c0.303,0.607,1.362,0.986,1.135,1.82c-0.227,0.834,0,3.337,0.454,4.019
		c0.454,0.683,2.952,1.441,4.011,1.441c1.06,0,3.708-0.228,2.952-1.592c-0.757-1.365-3.709-3.792-3.709-3.792L112.828,107.006
		L112.828,107.006z M127.284,105.338c0,0-0.757-0.531-1.135-0.531s-1.06,0.151-0.757,0.606s0.748,0.969,0.525,1.736
		s-1.131,1.449-1.131,1.449l4.011,2.124l5.298-1.062l-0.227-1.593c0,0-1.816-0.758-2.422-1.289c-0.605-0.531-1.665-0.683-2.119-1.29
		c-0.455-0.606-0.606-0.606-0.909-0.531C128.117,105.035,127.284,105.338,127.284,105.338L127.284,105.338z M126.009,81.234
		c0,0-0.708-0.778-1.839-0.424c-1.132,0.354-1.839,0.354-1.839,0.849s-0.354,0.708-0.708,0.566s-1.132-0.92-1.556-0.283
		c-0.425,0.637-1.911,1.91-0.849,4.033c1.061,2.122,0,3.608,0,4.457c0,0.849-0.566,1.485,0,2.9s0.417,2.25,1.607,3.44
		c1.189,1.189,1.955,1.445,1.955,2.635c0,1.189,0.841,2.276,0.717,2.6s-0.895,0.896-0.348,1.47s1.715,0.697,2.063,0.075
		c0.348-0.623,0.398-1.52-0.249-2.366c-0.646-0.847-0.323-1.096-0.546-2.093c-0.224-0.997-0.622-2.466-0.174-3.985
		c0.448-1.52,0.921-4.445,1.467-5.089c0.546-0.644,1.605-1.922,1.446-3.906c-0.158-1.984,0.038-3.06-0.554-3.968
		S126.009,81.234,126.009,81.234L126.009,81.234z M142.705,58.171c0,0,1.097,0.725,1.253,0.959c0.156,0.234,0.507,0.663,0.896,1.482
		c0.39,0.819-0.195,0.897-0.507,1.326s0.585,0.468,0.936,0.468s0.896,1.17,1.521,1.793c0.624,0.624,1.56,1.521,2.066,2.028
		s-0.624,1.599-0.624,1.599s0.896,0.584,1.248,1.014c0.351,0.429-0.312,0.663-0.897,0.897s0.741,1.014,1.014,1.208
		c0.273,0.195,0.195,0.39,0.195,0.78c0,0.39-1.56,1.404-1.833,1.599c-0.273,0.195-0.507-0.507-0.507-1.052
		c0-0.546,0.663-0.858,0.936-1.209s0.117-0.39-0.39-0.741c-0.506-0.351-0.312-0.507-0.468-0.897
		c-0.156-0.39-0.741-0.078-1.053-0.078s0-0.429,0.156-1.208c0.156-0.78,0-1.248-0.468-1.755c-0.468-0.507,0.117-0.468,0.078-0.896
		c-0.039-0.429-1.131-1.404-1.833-1.443c-0.702-0.039-0.078-0.741-0.429-1.092s-0.429,0.702-0.429,0.896
		c0,0.195-0.273,0.273-1.053,0.312c-0.78,0.039-0.663-0.741-1.092-1.092c-0.429-0.351-0.624,0.429-0.897,1.092
		c-0.273,0.663-0.78-1.13-1.014-1.014c-0.234,0.117-1.208,1.599-1.404,2.223c-0.195,0.624-0.756,0.396-1.411,0.32
		c-0.655-0.077-0.462-0.501-0.809-0.848s-0.616,0.077-0.616,0.077s-0.231,0.5-0.501,0.54c-0.27,0.038-1.349-0.424-1.849-0.925
		c-0.501-0.501-0.462-0.617-0.771-0.617c-0.309,0-1.657,0-2.312,0.309c-0.655,0.308,0.154,0.731,0.501,1.271
		s-0.771,0.848-0.655,1.233s3.506,2.813,3.429,3.352s-1.652,2.302-1.91,2.388c-0.257,0.086,0,0.603-0.229,0.889
		s-1.488-0.631-1.688-0.631c-0.201,0-1.316,1.233-1.66,1.577c-0.343,0.344-0.543,0.717-0.573,1.119
		c-0.028,0.401-1.087,1.491-1.431,1.634c-0.344,0.144-1.317-0.143-1.746-0.057s-0.171,0.487-0.286,0.717s-1.231,0.315-1.46,0.315
		c-0.229,0-0.229,0.344-0.314,0.717s-0.544-0.058-0.773-0.315c-0.229-0.258-0.601-0.545-0.916-0.459
		c-0.315,0.085-0.172,0.43-0.172,0.688s-0.429,0.229-0.772,0.373c-0.343,0.143-0.83-0.746-1.087-0.746
		c-0.258,0-0.315,0.344-0.315,0.688c0,0.344-0.154,0.296-0.366,0.243c-0.212-0.053-0.265,0-0.636,0.424
		c-0.371,0.424-1.166-0.106-1.749-0.053c-0.583,0.053-0.212,0.636-0.212,1.006c0,0.372-0.688,0.265-1.272,0.424
		c-0.583,0.159,0.424,1.484,0.424,2.067c0,0.583-3.041,3.42-3.424,3.932c-0.383,0.512-0.937-0.469-1.277-0.427
		c-0.341,0.042,0,0.469-0.298,1.024c-0.298,0.555-2.639,2.56-3.278,3.37s-2.555,2.517-2.555,2.517s-1.362,1.877-1.49,2.261
		s0.213,0.64,0.724,1.066c0.511,0.427,1.149,1.365,1.916,1.835c0.767,0.469,0.426,1.024,0,2.133s-2.64-0.981-2.64-0.981
		s0.554-0.981,0.554-1.493c0-0.512-0.682,0-1.32,0c-0.638,0-0.085-0.938-0.213-1.408c-0.127-0.469-0.553,1.28-0.809,1.195
		s-0.17-1.578-0.17-2.176c0-0.597-0.426,0.64-0.681,0.683s-0.298-1.023-0.298-2.047s-1.064,0.938-1.575,0.981
		c-0.511,0.042-0.255-1.237,0.127-1.579c0.383-0.341,0.213-0.853-0.042-0.512c-0.256,0.341-1.149,0.768-1.192,0.085
		c-0.042-0.683,4.811-4.692,5.109-5.162c0.298-0.47,1.192-1.237,1.32-2.261c0.128-1.023,0.426-1.578,0.766-1.792
		c0.341-0.213,0.571-0.908,0.571-0.908l0.283-0.919c0,0,0.354,0.141,0.778-0.283c0.424-0.424-0.354-0.991-0.354-1.698
		s1.415-2.122,1.627-2.971c0.212-0.849,1.061-1.698,1.344-1.698c0.283,0,1.557-1.485,1.981-1.698c0.424-0.212,1.344,0,1.98-0.283
		s1.627-1.061,2.335-1.061c0.707,0,1.485-0.354,2.405-0.991c0.919-0.636,3.113-2.688,3.608-4.174s2.618-3.891,2.9-4.527
		c0.283-0.637,0.071-1.698,0.071-2.406c0-0.707,0.778-1.273,1.203-1.344s1.203,0.778,1.203,0.778l0.991-0.99
		c0,0,0.637,0.566,0.919,1.061c0.283,0.495,0.849,0,0.991-0.92c0.142-0.919,1.202,0.354,1.91,0.849
		c0.708,0.496,1.486,0.99,1.486,0.424c0-0.565,0.212-0.565,0.778-0.141s1.203,0.707,1.061,0.495
		c-0.141-0.212,1.061-1.486,1.344-2.335c0.283-0.849,1.061-0.354,1.557,0c0.495,0.354,1.556,0.637,3.042,0.142
		c1.485-0.495,0.708-0.07,1.769,0.142C142.068,59.091,142.705,58.171,142.705,58.171L142.705,58.171z M130.031,53.834
		c0,0,0.954,1.06,0.742,1.272c-0.211,0.212-0.53-0.371-1.377-0.318c-0.849,0.053-0.583,0.636-1.59,0.159
		c-1.007-0.477-0.954,0.106-1.749-0.424c-0.795-0.53,0.159-0.371-0.583-0.954c-0.742-0.583-1.431-1.696-1.431-1.696
		s-0.477,0.159-0.583-0.424c-0.106-0.583-0.954-1.166-0.371-1.219c0.583-0.053,1.113,0.848,1.431,0.53
		c0.318-0.318-0.159-1.166,0.318-1.272c0.477-0.106,0.212,0.689,0.901,0.795s1.59,0.053,1.855,0.053s0.159,0.424,0.212,0.901
		s1.166,1.113,1.378,1.484C129.395,53.092,130.031,53.834,130.031,53.834L130.031,53.834z M129.621,46.753
		c0,0-0.596,0.725-0.766,1.194s-0.511,0.938,0.042,1.237c0.554,0.299,0.213,0.555,0.894,0.726c0.681,0.17,1.362-0.597,1.107-1.365
		c-0.255-0.768-0.639-0.896-0.639-1.28c0-0.384-0.127-0.683-0.127-0.683L129.621,46.753L129.621,46.753z M147.662,44.196
		c0,0-2.3,1.949-2.847,2.495c-0.545,0.546-0.195,1.131-0.819,1.209c-0.624,0.078-2.339,0.195-2.885,0.78s-0.507,2.534-0.039,3.081
		c0.468,0.545,2.223,1.677,2.223,1.248c0-0.429-1.287-1.482-0.819-1.677s1.169,0.312,1.443,0c0.273-0.312,1.988-0.663,1.638-1.365
		c-0.351-0.702-1.092-1.091-0.546-1.481s0.975-0.039,0.975-0.624s0.273-0.78,0.663-0.936c0.39-0.156,0.39-0.624,0.429-1.014
		c0.039-0.39,0.507-0.624,0.585-0.78C147.74,44.976,147.662,44.196,147.662,44.196L147.662,44.196z M124.938,42.401
		c0,0,0,0,0.639-0.256s0.127,0.384,0.341,1.152c0.213,0.768,0.511,0.811,0.17,1.237c-0.341,0.426-1.021,1.28-1.447,1.237
		c-0.426-0.043-0.127-0.811-0.298-0.896c-0.17-0.085-0.724,0.469-1.064,0.298c-0.341-0.17-0.213-0.896-0.554-1.322
		c-0.341-0.427-0.34,0.512-0.596,1.024c-0.255,0.512-0.553,0.17-0.724-0.341c-0.17-0.512-1.362-0.555-1.49-1.322
		c-0.127-0.768,0.639-0.597,0.979-0.896c0.34-0.298,0-0.597,0.681-0.597s0.511,0.64,0.766,0.725
		c0.256,0.085,0.426-0.085,0.426-0.725c0-0.64,0.425-0.683,1.149-0.512C124.64,41.378,124.938,42.401,124.938,42.401z"/>
	<path fill-rule="evenodd" clip-rule="evenodd" fill="#0B7AB6" d="M95.668,221.048c0,0-1.396-0.242-0.304,0.85
		c1.093,1.093,2.489,2.61,3.521,4.796c1.032,2.186,1.943,3.946,3.46,4.796c1.518,0.851,1.639,0.183,1.335-0.304
		c-0.303-0.485-0.425-1.274-0.485-2.55c-0.061-1.274-1.093-3.035-2.368-4.066c-1.275-1.032-2.975-2.55-4.067-3.035
		C95.668,221.048,95.668,221.048,95.668,221.048L95.668,221.048z M89.434,220.461c0,0-4.811,3.892-2.547,8.772
		c2.264,4.882,3.396,4.527,3.042,7.146c-0.354,2.617-0.212,4.104,1.061,3.537c1.273-0.565,1.981-3.679,1.415-6.014
		c-0.566-2.334-4.74-5.518-3.608-8.206c1.132-2.688,1.839-2.759,2.618-2.688c0.778,0.071,0.637,1.203,0.637,1.84
		c0,0.636,1.557,4.599,2.901,6.721c1.344,2.122,2.193,4.527,0.919,6.154c-1.273,1.628-2.814,2.326-2.692,3.237
		c0.122,0.91,0.061,2.063-0.243,2.063c-0.304,0-5.403,0.304-5.646-3.035c-0.243-3.339,0.122-4.553-1.457-5.524
		c-1.579-0.971-4.675,0.183-4.796-2.731c-0.122-2.914,0.243-3.946,1.882-6.313c1.639-2.368,3.885-5.16,4.31-5.706
		c0.425-0.547,1.032-0.364,1.457-0.364S89.434,220.461,89.434,220.461L89.434,220.461z M105.381,238.288c0,0-0.91,0.851-1.7,0.365
		c-0.789-0.486-2.367,0.849-3.46,1.639c-1.093,0.789-3.764,1.274-4.067,0.729c-0.304-0.547,1.457-1.032,1.457-1.579
		c0-0.546,0.729-1.517,0.91-4.856c0.183-3.338-3.157-7.405-3.096-7.892c0.061-0.485,1.214,0.972,1.761,2.125
		c0.546,1.153,2.125,3.885,3.945,5.038C102.953,235.01,105.381,238.288,105.381,238.288z"/>
	<path fill-rule="evenodd" clip-rule="evenodd" fill="#0B7AB6" d="M225.914,37.138c0,0-2.138-1.004-1.068-3.011
		c1.068-2.007,3.74-1.74,4.809-0.268s4.274,9.234,6.077,10.439c1.804,1.204,1.804,1.405,1.804,1.405s-4.274,3.279-7.613,2.543
		c-3.34-0.736-7.747-4.015-8.481-5.822c-0.735-1.807-0.735-3.479,0.4-3.948c1.135-0.468,3.405,1.406,4.207,2.878
		s4.207,3.747,5.343,3.011s2.138-1.271,1.068-2.141c-1.068-0.87-3.539-1.406-4.607-2.61
		C226.782,38.409,225.914,37.138,225.914,37.138L225.914,37.138z M232.172,24.562c0,0-3.509,4.033-3.768,4.55
		c-0.257,0.517,0.207,0.569,2.529,2.43s4.129,7.083,5.625,9.307s3.251,0.931,3.251,0.931s-0.619-0.362-1.238-1.655
		c-0.619-1.292-0.877-5.222-1.549-9.565C236.353,26.217,232.172,24.562,232.172,24.562L232.172,24.562z M232.659,28.104
		c0,0-1.402,0.669-0.601,2.342c0.801,1.673,1.669,1.605,2.204,1.539c0.534-0.066,0-2.342-0.201-2.811
		C233.861,28.706,232.659,28.104,232.659,28.104z"/>
	<path fill-rule="evenodd" clip-rule="evenodd" fill="#FEFEFE" d="M206.639,86.038c0,0-1.457,0.183-2.186-0.667
		c-0.729-0.849-1.397-1.396-2.064-1.76c-0.667-0.364-1.396,0.668-1.7,0s-0.486-0.85-0.91-0.485c-0.426,0.363,1.093,2.67,1.274,3.701
		c0.183,1.034,1.396,5.161,1.336,6.253c-0.061,1.093-0.789,1.822-0.061,2.611c0.728,0.789,0.728,0.85,0.728,2.307
		c0,1.457,0.061,2.55,0.85,2.55s3.4-0.184,3.461-0.789c0.061-0.608,0.12-2.126,0.12-2.126s-2.427,0.244-2.427-0.545
		c0-0.789,2.186-0.426,1.821-0.971c-0.364-0.547-2.125,0.06-1.943-0.791c0.183-0.849,1.215-0.121,1.215-0.909
		c0-0.79-0.425-2.125,0.061-3.34c0.484-1.213,0.426-1.274,0.484-2.003c0.063-0.728,0.242-1.579,0.365-1.821
		C207.184,87.009,206.639,86.038,206.639,86.038L206.639,86.038z M185.531,92.365c0,0-1.274,1.462-2.028,1.462
		c-0.756,0-1.462-0.423-1.982,0.095c-0.519,0.518-0.753,1.083-0.66,1.745c0.095,0.66,0.614,0.566,0.189,1.179
		c-0.425,0.612-0.425,1.698,0.047,1.98c0.472,0.283,1.273-0.425,1.509-0.566c0.237-0.141,0.473-0.141,0.425,0.377
		c-0.047,0.519-0.378,1.699,0.425,1.604c0.802-0.094,0.472-1.415,1.179-1.697c0.708-0.284,1.085-0.425,1.273,0.472
		c0.189,0.895-0.188,1.225,0.473,0.848c0.659-0.378,0.849-0.378,0.612-1.744c-0.236-1.369-0.283-2.877-0.612-3.349
		c-0.331-0.471-0.708-0.519-0.378-1.084c0.33-0.566,0.754-0.801,0.33-1.226C185.907,92.034,185.531,92.365,185.531,92.365z"/>
</g>
</svg>
